<svg width="1260" height="581" viewBox="0 0 1260 581" fill="none" xmlns="http://www.w3.org/2000/svg">
<path opacity="0.7" d="M27.4671 762.431C128.239 978.087 480.454 1027.72 812.693 873.055C1144.96 718.39 1333.25 417.078 1232.54 201.428C1132.17 -13.4452 782.212 -63.5699 451.097 88.9561C449.826 89.5417 448.556 90.1296 447.286 90.7205C115.047 245.389 -73.2587 546.729 27.4671 762.431ZM1228.99 203.058C1329.07 417.293 1141.75 716.685 811.473 870.443C481.171 1024.19 131.077 975.023 31.0262 760.775C-24.9658 640.921 8.99148 494.408 107.608 361.654C15.7763 489.445 -14.9019 629.37 38.7736 744.319C136.79 954.216 479.602 1002.51 802.868 852.021C1126.14 701.5 1309.41 408.292 1211.38 198.434C1157.66 83.419 1030.46 16.9213 873.243 5.06297C1038.61 14.9124 1172.97 83.127 1228.99 203.058ZM366.998 219.449C386.299 260.818 453.772 270.399 517.379 240.789C580.986 211.18 616.999 153.428 597.668 112.062C587.558 90.3905 564.227 77.4491 535.158 74.2886C572.372 75.4567 602.856 90.1262 615.274 116.714C636.615 162.407 596.55 226.317 525.964 259.178C455.38 292.041 380.589 281.6 359.243 235.906C346.838 209.32 355.164 176.607 378.155 147.414C361.927 171.661 356.875 197.802 366.998 219.449ZM378.323 201.37C394.949 236.923 452.928 245.164 507.527 219.746C562.196 194.295 593.146 144.641 576.548 109.099C567.908 90.6133 548.116 79.5148 523.437 76.6745C556.281 77.5098 583.229 90.3221 594.14 113.704C612.768 153.609 577.794 209.42 516.15 238.117C454.468 266.832 389.14 257.728 370.518 217.809C359.582 194.396 367.114 165.486 387.664 139.795C373.915 160.532 369.674 182.855 378.323 201.37ZM389.62 183.284C403.521 213.086 451.996 219.922 497.694 198.65C543.392 177.379 569.288 135.882 555.377 106.108C555.16 105.645 554.936 105.187 554.703 104.735C554.622 104.581 554.539 104.433 554.458 104.281C554.3 103.985 554.143 103.689 553.979 103.396C553.877 103.215 553.768 103.039 553.662 102.859C553.514 102.6 553.365 102.342 553.208 102.091C553.09 101.9 552.964 101.715 552.844 101.525C552.693 101.289 552.544 101.051 552.389 100.819C552.257 100.625 552.118 100.434 551.983 100.241C551.83 100.02 551.678 99.7972 551.52 99.5807C551.378 99.384 551.227 99.1927 551.08 98.9987C550.922 98.7914 550.769 98.581 550.608 98.3767C550.446 98.1725 550.29 97.9886 550.131 97.7942C549.973 97.5998 549.814 97.3999 549.649 97.2087C549.484 97.0177 549.31 96.8231 549.138 96.6291C548.975 96.4442 548.814 96.256 548.646 96.0736C548.468 95.8781 548.283 95.6887 548.101 95.4967C547.934 95.3217 547.77 95.1442 547.599 94.9733C547.409 94.78 547.213 94.5917 547.018 94.4014C546.85 94.2363 546.683 94.0688 546.515 93.9068C546.312 93.7141 546.105 93.5291 545.899 93.3419C545.728 93.1861 545.562 93.0286 545.386 92.8745C545.171 92.6843 544.95 92.5003 544.731 92.314C544.559 92.1683 544.39 92.0198 544.216 91.8764C543.989 91.6884 543.756 91.5043 543.523 91.3233C543.35 91.1868 543.181 91.0474 543.005 90.9127C542.765 90.7282 542.519 90.5487 542.273 90.368C542.102 90.2374 541.932 90.1074 541.756 89.9842C541.503 89.8021 541.243 89.6257 540.985 89.4479C540.813 89.3291 540.643 89.2075 540.469 89.09C540.202 88.9111 539.929 88.7376 539.658 88.5633C539.486 88.453 539.317 88.3405 539.145 88.232C538.867 88.0572 538.578 87.8861 538.292 87.717C538.123 87.6163 537.956 87.5111 537.783 87.4113C537.49 87.2364 537.188 87.0724 536.889 86.9048C536.718 86.81 536.556 86.7157 536.387 86.6229C536.079 86.4545 535.764 86.2919 535.45 86.128C535.286 86.0429 535.123 85.9544 534.957 85.8702C534.633 85.7061 534.305 85.5476 533.976 85.388C533.814 85.3101 533.655 85.2299 533.492 85.1528C533.154 84.9929 532.811 84.8369 532.467 84.6843C532.309 84.6134 532.153 84.5407 531.996 84.472C531.642 84.3168 531.286 84.1681 530.925 84.0183C530.773 83.9547 530.622 83.8889 530.467 83.826C530.098 83.6763 529.723 83.5314 529.35 83.3881C529.201 83.3338 529.056 83.2723 528.907 83.2162C528.522 83.0717 528.133 82.9346 527.743 82.7932C527.602 82.7417 527.46 82.6903 527.318 82.6385C526.917 82.4999 526.511 82.367 526.106 82.2345C525.968 82.19 525.834 82.1437 525.696 82.1006C525.28 81.9673 524.859 81.8405 524.439 81.7123C524.309 81.6732 524.18 81.6332 524.049 81.5951C523.616 81.4691 523.181 81.348 522.745 81.2313C522.62 81.1976 522.496 81.1614 522.372 81.1284C521.925 81.0096 521.472 80.8965 521.018 80.7862C520.902 80.7572 520.787 80.727 520.668 80.6985C520.205 80.5873 519.736 80.4815 519.267 80.3787C519.158 80.3545 519.049 80.3286 518.939 80.305C518.46 80.1994 517.976 80.1046 517.491 80.0091L517.183 79.9473C516.689 79.8523 516.19 79.763 515.687 79.6769C515.594 79.6605 515.5 79.6428 515.405 79.6265C514.894 79.5406 514.379 79.4591 513.863 79.3824C513.776 79.3692 513.689 79.3549 513.604 79.3429C513.076 79.2658 512.547 79.1938 512.015 79.1266C511.935 79.1167 511.857 79.1052 511.777 79.0956C511.724 79.0888 511.668 79.0836 511.614 79.0769C540.133 79.5609 563.595 90.54 573.027 110.75C588.953 144.824 559.022 192.513 506.303 217.079C453.603 241.59 397.77 233.829 381.875 199.748C372.452 179.576 379.046 154.656 396.898 132.582C385.813 149.698 382.489 168.039 389.62 183.284ZM400.909 165.226C412.115 189.173 451.11 194.728 487.87 177.612C524.629 160.496 545.437 127.092 534.258 103.158C528.61 91.0801 515.893 83.6742 499.964 81.4875C502.974 81.5087 505.912 81.6695 508.78 81.9699L508.789 81.9732C509.494 82.0472 510.194 82.1295 510.888 82.2201L510.934 82.2258C513.668 82.579 516.38 83.0788 519.059 83.7236L519.189 83.7557C519.79 83.9021 520.385 84.0555 520.976 84.2162L521.143 84.2616C523.056 84.7868 524.911 85.3848 526.705 86.0556L526.737 86.0671C527.296 86.2774 527.85 86.4961 528.398 86.7198L528.666 86.8318C529.145 87.0307 529.618 87.2346 530.085 87.4436L530.382 87.5769C530.871 87.8004 531.356 88.029 531.835 88.2626L532.006 88.3453C533.093 88.883 534.15 89.4515 535.177 90.0508C535.248 90.0923 535.318 90.1361 535.389 90.178C535.81 90.4264 536.226 90.6806 536.637 90.94C536.758 91.0168 536.879 91.0962 536.999 91.1728C537.363 91.4062 537.722 91.6442 538.076 91.8867C538.202 91.9733 538.326 92.058 538.452 92.145C538.818 92.4003 539.177 92.6616 539.536 92.9262C539.631 92.9965 539.729 93.0648 539.823 93.138C540.723 93.8167 541.589 94.5239 542.421 95.2598C542.524 95.3501 542.619 95.4407 542.719 95.5309C543.025 95.8063 543.326 96.0856 543.623 96.3687C543.75 96.4908 543.875 96.6149 544.002 96.7387C544.268 97.001 544.532 97.266 544.79 97.5338C544.916 97.6649 545.04 97.7952 545.165 97.927C545.431 98.2109 545.69 98.4983 545.946 98.7879C546.049 98.9046 546.155 99.0194 546.256 99.1369C546.959 99.9528 547.627 100.796 548.259 101.667C548.354 101.799 548.445 101.935 548.539 102.068C548.755 102.373 548.967 102.681 549.174 102.992C549.281 103.154 549.386 103.319 549.491 103.484C549.679 103.779 549.863 104.077 550.043 104.375C550.144 104.545 550.245 104.713 550.345 104.885C550.529 105.205 550.709 105.528 550.882 105.853C550.964 106.004 551.046 106.154 551.127 106.307C551.376 106.785 551.617 107.268 551.848 107.759C565.061 136.047 540.227 175.623 496.443 196.026C452.707 216.387 406.352 209.932 393.14 181.643C392.91 181.149 392.692 180.654 392.488 180.158C392.423 179.997 392.362 179.838 392.299 179.679C392.163 179.336 392.028 178.991 391.901 178.647C391.831 178.46 391.768 178.275 391.704 178.088C391.59 177.758 391.481 177.426 391.375 177.094C391.317 176.907 391.257 176.721 391.203 176.534C391.096 176.177 390.996 175.817 390.901 175.457C390.858 175.299 390.814 175.142 390.774 174.983C390.511 173.941 390.292 172.888 390.119 171.825C390.094 171.674 390.074 171.518 390.05 171.366C389.992 170.983 389.938 170.6 389.891 170.215C389.87 170.035 389.85 169.855 389.83 169.674C389.791 169.305 389.755 168.934 389.726 168.562C389.711 168.386 389.698 168.21 389.685 168.033C389.659 167.626 389.641 167.218 389.624 166.809C389.62 166.671 389.612 166.538 389.608 166.402C389.578 165.294 389.593 164.177 389.65 163.054C389.654 162.935 389.666 162.818 389.671 162.699C389.696 162.256 389.728 161.813 389.767 161.368C389.78 161.216 389.796 161.065 389.811 160.914C389.853 160.488 389.9 160.061 389.954 159.635C389.973 159.491 389.99 159.349 390.01 159.205C390.074 158.727 390.145 158.248 390.225 157.768C390.239 157.684 390.252 157.6 390.265 157.515C390.464 156.346 390.707 155.172 390.995 153.996C391.01 153.933 391.026 153.876 391.04 153.816C391.168 153.299 391.305 152.781 391.448 152.262C391.478 152.157 391.508 152.053 391.538 151.948C391.678 151.456 391.825 150.963 391.98 150.47C392.009 150.376 392.038 150.282 392.067 150.188C392.247 149.63 392.432 149.072 392.631 148.512C392.635 148.497 392.641 148.482 392.647 148.467C393.283 146.666 394.015 144.865 394.842 143.065C394.867 143.011 394.892 142.959 394.915 142.905C395.171 142.353 395.434 141.801 395.708 141.248L395.77 141.122C396.997 138.66 398.355 136.266 399.839 133.95C399.845 133.935 399.857 133.924 399.865 133.91C400.24 133.322 400.625 132.737 401.021 132.152C401.023 132.145 401.028 132.14 401.033 132.134C402.641 129.755 404.406 127.406 406.323 125.088C397.767 138.677 395.275 153.161 400.909 165.226ZM412.243 147.123C420.705 165.282 450.241 169.48 478.029 156.541C505.845 143.616 521.582 118.319 513.093 100.162C508.952 91.2897 499.771 85.7432 488.22 83.9024C507.93 83.7243 524.29 90.9884 530.739 104.782C541.236 127.282 521.445 158.738 486.634 174.964C451.797 191.184 414.937 186.067 404.433 163.583C397.975 149.756 402.938 132.555 415.792 117.578C409.743 127.617 408.08 138.229 412.243 147.123ZM423.535 129.062C429.294 141.392 449.351 144.286 468.194 135.533C487.083 126.74 497.725 109.545 491.971 97.2018C489.316 91.524 483.644 87.8396 476.461 86.3689C491.788 85.8247 504.622 91.2216 509.563 101.812C517.359 118.483 502.657 141.849 476.793 153.89C450.956 165.944 423.535 162.152 415.77 145.478C410.807 134.881 414.926 121.578 425.209 110.202C421.704 116.654 420.875 123.367 423.535 129.062ZM434.842 110.949C437.918 117.488 448.443 119.052 458.361 114.435C468.279 109.819 473.881 100.746 470.837 94.2027C469.66 91.6839 467.375 89.9093 464.451 88.9353C475.504 87.8919 484.978 91.3951 488.448 98.8414C493.529 109.722 483.894 124.98 466.967 132.859C450.04 140.737 432.139 138.303 427.058 127.422C423.588 119.961 426.989 110.465 434.897 102.686C433.762 105.551 433.661 108.438 434.843 110.951L434.842 110.949ZM355.723 237.543C377.759 284.725 454.678 295.63 527.229 261.833C599.74 228.077 640.839 162.239 618.801 115.057C607.14 90.104 580.116 75.2908 546.509 71.8718C588.281 73.2651 622.476 89.7775 636.434 119.642C660.508 171.163 615.363 243.208 535.808 280.244C456.28 317.291 371.964 305.501 347.893 253.966C333.952 224.09 343.269 187.307 369.066 154.456C350.072 182.37 344.062 212.575 355.724 237.545L355.723 237.543ZM344.371 255.609C369.12 308.595 455.563 320.826 537.043 282.894C618.524 244.963 664.704 170.988 639.956 118.001C626.855 89.9445 596.43 73.3108 558.597 69.5109C604.569 71.3133 642.132 89.6632 657.535 122.644C684.322 179.965 634.122 260.085 545.632 301.279C457.142 342.475 363.386 329.363 336.626 272.066C321.184 238.983 331.342 198.32 359.676 161.924C338.111 193.385 331.228 227.467 344.371 255.609ZM333.109 273.68C360.53 332.485 456.443 346.046 546.885 303.966C637.309 261.844 688.523 179.779 661.09 121.001C646.444 89.6677 612.365 71.1735 570.04 67.1045C620.551 69.1582 661.806 89.3703 678.738 125.622C708.229 188.762 652.935 276.979 555.463 322.38C458.036 367.733 354.822 353.265 325.332 290.126C308.413 253.926 319.375 209.45 350.185 169.54C326.156 204.495 318.472 242.39 333.111 273.681L333.109 273.68ZM321.799 291.794C351.978 356.358 457.349 371.276 556.71 325.001C656.095 278.729 712.414 188.534 682.267 123.97C666.131 89.4193 628.461 69.0804 581.703 64.7155C636.596 67.0764 681.402 89.1268 699.827 128.587C732.031 197.516 671.677 293.906 565.316 343.423C458.927 392.928 346.21 377.142 313.999 308.228C295.532 268.666 307.51 220.086 341.165 176.506C314.318 215.144 305.634 257.147 321.801 291.794H321.799ZM310.485 309.842C343.353 380.262 458.253 396.51 566.542 346.096C674.864 295.667 736.229 197.34 703.351 126.947C685.688 89.1311 644.362 66.9436 593.101 62.321C595.858 62.4418 598.591 62.6089 601.301 62.8222L601.578 62.8443C602.362 62.9071 603.143 62.9734 603.924 63.0433L604.364 63.0834C605.1 63.1511 605.834 63.2224 606.568 63.2969L607.028 63.345C607.778 63.4225 608.526 63.5039 609.272 63.5892L609.628 63.6289C610.477 63.727 611.325 63.8299 612.169 63.9376L612.185 63.9394C614.816 64.2741 617.419 64.6545 619.993 65.0807L620.304 65.133C621.035 65.2551 621.762 65.3801 622.485 65.5079L622.946 65.5904C623.631 65.7143 624.313 65.8408 624.991 65.9697L625.472 66.0622C626.165 66.1961 626.856 66.3333 627.544 66.4736L627.936 66.5531C628.717 66.7138 629.494 66.879 630.269 67.0489L630.358 67.0678C632.835 67.6116 635.28 68.1995 637.693 68.8316L638.067 68.9307C638.724 69.1043 639.379 69.281 640.031 69.4612L640.538 69.6023C641.154 69.774 641.767 69.949 642.379 70.1271L642.903 70.2796C643.524 70.4628 644.144 70.649 644.761 70.8382L645.208 70.9747C645.904 71.1904 646.595 71.4093 647.283 71.6311L647.473 71.6912C649.026 72.1951 650.563 72.7189 652.085 73.2623C652.122 73.2757 652.16 73.2893 652.197 73.3029C652.891 73.5513 653.581 73.8032 654.268 74.0593L654.717 74.2286C655.292 74.4459 655.867 74.6658 656.44 74.888L656.992 75.1052C657.533 75.3185 658.072 75.534 658.609 75.7521L659.175 75.983C659.719 76.2077 660.26 76.4346 660.8 76.6638C660.967 76.735 661.135 76.8053 661.302 76.8771C661.905 77.1355 662.502 77.397 663.098 77.6618C663.195 77.7055 663.294 77.7483 663.392 77.7921C664.811 78.4258 666.212 79.0786 667.593 79.7504C667.677 79.7908 667.759 79.8317 667.842 79.8726C668.429 80.1589 669.013 80.4488 669.593 80.7421C669.763 80.8276 669.932 80.9146 670.1 81.0013C670.594 81.2535 671.088 81.5081 671.577 81.7654C671.772 81.8682 671.967 81.9716 672.162 82.0756C672.627 82.3231 673.091 82.5727 673.552 82.8242L674.145 83.1497C674.61 83.4073 675.074 83.667 675.536 83.9284L676.076 84.2365C676.586 84.5295 677.092 84.8251 677.595 85.1235C677.719 85.1976 677.845 85.2704 677.97 85.3448C679.244 86.1048 680.497 86.8826 681.73 87.6779C681.847 87.7531 681.962 87.8304 682.078 87.9056C682.564 88.2212 683.049 88.5396 683.529 88.861L684.066 89.2249C684.483 89.5069 684.897 89.7905 685.309 90.0758C685.506 90.2158 685.703 90.3517 685.901 90.4902C686.293 90.7667 686.684 91.0453 687.072 91.3259C687.27 91.4691 687.469 91.6126 687.667 91.7566C688.059 92.0439 688.449 92.3328 688.836 92.6233C689.02 92.7584 689.205 92.8979 689.386 93.037C689.809 93.3579 690.23 93.6817 690.647 94.0086C690.786 94.1173 690.927 94.2253 691.068 94.3349C692.185 95.2165 693.283 96.1164 694.361 97.0344C694.494 97.151 694.626 97.2673 694.761 97.3791C695.158 97.7196 695.551 98.0621 695.943 98.407C696.122 98.564 696.297 98.7235 696.475 98.8806C696.818 99.1877 697.161 99.4977 697.503 99.8105C697.692 99.9836 697.88 100.158 698.065 100.332C698.392 100.635 698.716 100.94 699.038 101.247C699.226 101.426 699.413 101.605 699.599 101.785C699.924 102.099 700.244 102.414 700.564 102.732C700.74 102.905 700.917 103.078 701.088 103.252C701.435 103.6 701.777 103.951 702.117 104.304C702.257 104.449 702.398 104.593 702.539 104.738C703.496 105.74 704.432 106.759 705.347 107.793C705.481 107.945 705.612 108.099 705.745 108.251C706.065 108.617 706.382 108.984 706.697 109.353C706.86 109.545 707.02 109.74 707.183 109.932C707.463 110.268 707.74 110.604 708.016 110.941C708.185 111.15 708.354 111.358 708.52 111.568C708.787 111.899 709.049 112.232 709.311 112.566C709.477 112.779 709.642 112.992 709.806 113.206C710.069 113.548 710.329 113.892 710.587 114.237C710.741 114.444 710.897 114.65 711.049 114.858C711.327 115.236 711.601 115.617 711.873 115.998C712 116.175 712.129 116.351 712.253 116.528C713.044 117.65 713.81 118.788 714.554 119.942C714.672 120.125 714.788 120.312 714.904 120.496C715.155 120.891 715.404 121.287 715.65 121.686C715.787 121.91 715.922 122.135 716.058 122.361C716.279 122.726 716.497 123.093 716.714 123.461C716.854 123.7 716.992 123.94 717.13 124.18C717.338 124.542 717.544 124.906 717.748 125.272C717.884 125.513 718.018 125.757 718.152 126C718.358 126.376 718.56 126.751 718.759 127.13C718.884 127.364 719.01 127.599 719.132 127.835C719.347 128.248 719.557 128.665 719.767 129.083C719.868 129.285 719.972 129.486 720.072 129.688C720.378 130.309 720.678 130.934 720.973 131.563C755.88 206.321 690.465 310.795 575.143 364.463C459.832 418.165 337.625 401.038 302.713 326.293C302.419 325.663 302.133 325.031 301.854 324.398C301.762 324.191 301.676 323.984 301.585 323.776C301.4 323.347 301.215 322.917 301.038 322.484C300.934 322.238 300.835 321.992 300.735 321.746C300.573 321.35 300.415 320.953 300.258 320.555C300.156 320.296 300.056 320.037 299.959 319.778C299.809 319.387 299.662 318.995 299.518 318.602C299.423 318.343 299.328 318.082 299.234 317.823C299.09 317.419 298.949 317.015 298.81 316.61C298.726 316.362 298.639 316.116 298.557 315.867C298.407 315.42 298.264 314.972 298.12 314.523C298.054 314.317 297.987 314.112 297.924 313.905C297.719 313.249 297.521 312.591 297.33 311.932C297.326 311.919 297.324 311.905 297.319 311.891C297.134 311.246 296.954 310.599 296.782 309.95C296.726 309.74 296.673 309.527 296.619 309.317C296.5 308.864 296.386 308.41 296.274 307.954C296.213 307.704 296.155 307.454 296.094 307.205C295.994 306.785 295.897 306.364 295.802 305.943C295.744 305.681 295.687 305.419 295.631 305.155C295.542 304.739 295.455 304.323 295.371 303.905C295.318 303.644 295.266 303.383 295.215 303.122C295.132 302.69 295.052 302.257 294.975 301.825C294.931 301.58 294.886 301.335 294.844 301.09C294.76 300.604 294.681 300.117 294.605 299.63C294.576 299.439 294.544 299.248 294.514 299.056C294.307 297.69 294.128 296.317 293.975 294.938C293.952 294.738 293.934 294.537 293.913 294.336C293.862 293.849 293.814 293.361 293.767 292.871C293.745 292.629 293.724 292.387 293.705 292.143C293.664 291.69 293.63 291.24 293.599 290.787C293.58 290.532 293.564 290.278 293.547 290.022C293.518 289.574 293.492 289.126 293.468 288.677C293.455 288.425 293.444 288.174 293.432 287.922C293.41 287.455 293.392 286.985 293.378 286.516C293.371 286.287 293.363 286.058 293.356 285.825C293.343 285.286 293.333 284.747 293.331 284.208C293.328 284.05 293.324 283.892 293.322 283.732C293.313 282.317 293.328 280.895 293.372 279.468C293.377 279.293 293.385 279.117 293.391 278.941C293.41 278.41 293.432 277.878 293.457 277.345C293.47 277.122 293.483 276.899 293.492 276.674C293.518 276.183 293.548 275.694 293.58 275.204C293.596 274.968 293.612 274.73 293.63 274.493C293.664 274.006 293.704 273.519 293.745 273.033C293.764 272.802 293.784 272.569 293.805 272.34C293.851 271.828 293.901 271.316 293.956 270.801C293.976 270.601 293.995 270.401 294.017 270.199C294.083 269.594 294.153 268.987 294.228 268.381C294.241 268.273 294.251 268.167 294.266 268.062C294.449 266.6 294.659 265.135 294.895 263.668C294.918 263.528 294.943 263.388 294.964 263.248C295.06 262.667 295.159 262.084 295.262 261.503C295.298 261.307 295.336 261.113 295.369 260.915C295.467 260.384 295.568 259.852 295.671 259.319C295.713 259.106 295.756 258.896 295.796 258.688C295.903 258.158 296.012 257.629 296.125 257.099C296.168 256.897 296.211 256.695 296.255 256.495C296.377 255.931 296.502 255.369 296.632 254.806C296.67 254.645 296.706 254.482 296.742 254.319C296.9 253.635 297.065 252.953 297.237 252.27C297.248 252.23 297.256 252.19 297.267 252.15C297.642 250.652 298.044 249.152 298.471 247.65C298.5 247.553 298.53 247.454 298.557 247.357C298.739 246.724 298.923 246.092 299.112 245.458C299.161 245.297 299.21 245.134 299.26 244.972C299.435 244.399 299.614 243.824 299.797 243.247C299.854 243.069 299.911 242.89 299.97 242.712C300.153 242.14 300.34 241.57 300.532 240.997C300.587 240.831 300.643 240.663 300.7 240.496C300.908 239.883 301.119 239.271 301.335 238.659C301.379 238.539 301.418 238.421 301.46 238.301C302.259 236.05 303.115 233.797 304.027 231.545C304.047 231.489 304.073 231.433 304.096 231.376C304.373 230.7 304.652 230.023 304.937 229.346C304.99 229.217 305.046 229.088 305.101 228.96C305.36 228.348 305.624 227.736 305.891 227.124C305.955 226.977 306.019 226.83 306.085 226.683C306.352 226.075 306.624 225.468 306.901 224.862C306.96 224.729 307.021 224.596 307.083 224.463C307.382 223.807 307.687 223.151 307.996 222.495C308.033 222.418 308.069 222.342 308.104 222.266C309.177 219.999 310.306 217.736 311.49 215.477C311.499 215.452 311.514 215.432 311.526 215.409C311.898 214.7 312.275 213.992 312.657 213.285C312.711 213.184 312.765 213.084 312.821 212.985C313.167 212.347 313.517 211.709 313.871 211.072C313.938 210.952 314.006 210.832 314.072 210.711C314.426 210.077 314.785 209.444 315.147 208.812C315.208 208.707 315.269 208.603 315.33 208.498C315.726 207.813 316.126 207.126 316.532 206.442C316.556 206.4 316.58 206.357 316.605 206.316C317.943 204.057 319.335 201.806 320.781 199.562C320.781 199.562 320.784 199.557 320.784 199.556C321.248 198.834 321.718 198.116 322.193 197.397C322.247 197.314 322.303 197.232 322.357 197.15C322.786 196.503 323.219 195.856 323.658 195.21L323.866 194.902C324.303 194.26 324.744 193.62 325.189 192.98L325.371 192.718C325.858 192.021 326.349 191.325 326.844 190.63L326.888 190.568C328.479 188.343 330.122 186.127 331.816 183.923C302.374 226.121 292.808 272.019 310.485 309.842ZM299.186 327.928C334.775 404.124 459.105 421.721 576.374 367.105C693.665 312.523 760.08 206.126 724.494 129.919C705.37 88.9701 660.606 64.9444 605.085 59.9528C668.773 62.9367 720.703 88.6808 742.135 134.565C779.757 215.114 709.253 327.674 584.98 385.526C460.707 443.379 329.023 424.95 291.4 344.401C269.938 298.45 283.634 242.091 322.411 191.408C290.434 237.141 280.03 286.914 299.187 327.927L299.186 327.928ZM287.877 346.043C326.159 428.004 460.013 446.952 586.244 388.184C712.441 329.436 783.941 214.887 745.656 132.924C725.013 88.7268 676.643 62.8516 616.673 57.5711C684.799 60.844 740.327 88.4328 763.253 137.527C803.585 223.878 728.039 344.559 594.795 406.587C461.598 468.576 320.417 448.802 280.112 362.462C257.195 313.395 271.671 253.259 312.862 199.097C278.445 248.317 267.252 301.886 287.877 346.043ZM276.553 364.119C317.57 451.893 460.909 472.121 596.041 409.207C731.2 346.308 807.812 223.695 766.776 135.887C744.622 88.4282 692.592 60.7065 628.113 55.1695C700.754 58.6948 759.961 88.1346 784.425 140.509C827.47 232.646 746.808 361.494 604.674 427.641C462.492 493.833 311.829 472.689 268.801 380.574C244.365 328.256 259.765 264.122 303.643 206.343C266.544 259.165 254.41 316.711 276.555 364.119H276.553ZM265.262 382.177C308.972 475.807 461.807 497.376 605.901 430.316C750.014 363.202 831.666 232.471 787.949 138.866C764.313 88.2534 708.812 58.6912 640.05 52.7987C716.959 56.6843 779.598 87.9497 805.519 143.447C851.299 241.409 765.586 378.313 614.498 448.675C463.38 519.026 303.221 496.541 257.46 398.613C231.509 343.026 247.864 274.909 294.466 213.522C254.663 269.96 241.596 331.502 265.263 382.177H265.262ZM253.947 400.229C300.385 499.697 462.681 522.599 615.725 451.351C768.768 380.101 855.518 241.26 809.075 141.801C783.904 87.9178 724.672 56.5093 651.327 50.3909C732.839 54.4888 799.229 87.6094 826.703 146.4C875.155 250.187 784.416 395.245 624.331 469.774C464.279 544.285 294.624 520.458 246.145 416.665C218.724 357.956 235.909 286.002 285.01 221.093C242.7 281.05 228.808 346.428 253.949 400.229H253.947ZM242.622 418.304C291.796 523.587 463.562 547.82 625.577 472.394C787.545 397.014 879.374 250.033 830.228 144.76C803.638 87.8463 741.141 54.625 663.721 48.0576C749.3 52.6326 818.948 87.587 847.829 149.423C899.007 258.97 803.154 412.108 634.156 490.803C465.142 569.466 286.038 544.343 234.865 434.782C205.961 372.925 223.951 297.147 275.52 228.723C230.745 292.177 216.036 361.358 242.623 418.304H242.622ZM231.329 436.453C283.192 547.436 464.431 573.067 635.393 493.456C806.344 413.871 903.209 258.783 851.358 147.773C823.249 87.5634 757.081 52.478 675.138 45.6579C765.23 50.477 838.555 87.274 868.978 152.382C922.854 267.759 821.929 429.021 643.996 511.879C466.034 594.727 277.42 568.227 223.546 452.836C193.103 387.683 212.061 307.868 266.398 235.812C218.849 302.925 203.178 376.178 231.331 436.453H231.329ZM220.014 454.503C274.565 571.342 465.373 598.28 645.234 514.526C825.119 430.78 927.056 267.569 872.502 150.741C842.876 87.3005 773.115 50.3752 686.75 43.2667C781.279 48.3728 858.195 87.0179 890.117 155.366C946.71 276.53 840.716 445.903 653.831 532.885C466.925 619.922 268.834 592.112 212.24 470.948C180.298 402.562 200.128 318.839 257.047 243.23C206.917 313.887 190.369 391.032 220.016 454.503H220.014ZM208.708 472.615C265.996 595.268 466.234 623.466 655.058 535.562C843.906 447.664 950.936 276.365 893.649 153.715C862.534 87.0992 789.245 48.3319 698.522 40.896C797.416 46.3318 877.865 86.8195 911.272 158.326C970.564 285.32 859.506 462.79 663.647 553.948C467.812 645.118 260.246 616.004 200.925 489C167.477 417.412 188.219 329.741 247.788 250.541C195.005 324.8 177.548 405.908 208.708 472.615ZM197.389 490.667C257.386 619.121 467.123 648.66 664.882 556.595C862.642 464.53 974.759 285.143 914.762 156.687C882.126 86.7906 805.137 46.168 709.862 38.4927C813.284 44.1621 897.419 86.5004 932.351 161.303C994.382 294.11 878.268 479.663 673.487 575.018C468.689 670.338 251.666 639.865 189.635 507.058C154.668 432.195 176.333 340.536 238.593 257.735C183.107 335.597 164.709 420.692 197.391 490.667H197.389ZM186.112 508.698C248.817 642.953 468.019 673.914 674.716 577.692C881.42 481.437 998.59 293.904 935.878 159.661C901.737 86.5681 821.215 44.1106 721.582 36.12C829.401 42.104 917.097 86.2885 953.523 164.281C1018.27 302.893 897.018 496.561 683.313 596.051C469.599 695.565 243.068 663.78 178.328 525.169C141.892 447.135 164.392 351.631 229.15 265.31C171.181 346.678 151.967 435.596 186.112 508.701V508.698ZM174.804 526.811C240.211 666.893 468.881 699.101 684.55 598.698C900.219 498.296 1022.47 302.703 957.048 162.643C921.452 86.4185 837.507 42.1256 733.622 33.7602C845.666 40.1323 936.768 86.1468 974.664 167.268C1042.11 311.677 915.796 513.47 693.154 617.122C470.501 720.796 234.487 687.641 167.026 543.256C129.063 462.001 152.456 362.54 219.863 272.63C159.251 357.586 139.14 450.459 174.804 526.813V526.811ZM163.505 544.897C231.632 690.758 469.803 724.366 694.391 619.769C919.019 515.216 1046.31 311.499 978.182 165.638C941.002 86.0257 853.172 39.8507 744.542 31.3256C861.345 37.8364 956.34 85.7261 995.831 170.26C1065.97 320.45 934.619 530.337 702.969 638.18C471.382 746.014 225.859 711.542 155.729 561.34C116.246 476.807 140.576 373.36 210.678 279.843C147.365 368.413 126.315 465.276 163.505 544.897ZM152.198 563.01C223.009 714.666 470.665 749.554 704.216 640.805C937.792 532.064 1070.2 320.273 999.36 168.608C960.676 85.7989 869.306 37.7936 756.303 28.956C877.462 35.7846 975.988 85.5028 1016.95 173.21C1089.82 329.238 953.397 547.25 712.845 659.24C472.293 771.23 217.273 735.439 144.403 579.423C103.483 491.813 128.567 384.641 201.024 287.675C135.352 379.689 113.561 480.291 152.197 563.012L152.198 563.01ZM140.883 581.059C214.43 738.528 471.562 774.811 714.046 661.899C956.56 549.002 1094 329.028 1020.47 171.581C980.317 85.6064 885.434 35.7548 768.086 26.584C893.607 33.7412 995.66 85.3039 1038.1 176.181C1113.68 338.015 972.183 564.131 722.662 680.293C473.165 796.472 208.686 759.327 133.081 597.497C90.5909 506.499 116.738 395.15 192.14 294.462C123.538 390.205 100.686 494.977 140.883 581.061V581.059ZM129.553 599.14C205.831 762.444 472.45 800.008 723.898 682.945C975.346 565.882 1117.9 337.835 1041.63 174.529C999.924 85.2181 901.218 33.5148 779.192 24.1634C909.371 31.5036 1015.23 84.9336 1059.24 179.167C1137.54 346.776 990.975 581.019 732.504 701.37C474.019 821.687 200.084 783.182 121.781 615.587C77.826 521.479 104.774 406.326 182.623 302.135C111.562 401.369 87.8927 509.943 129.553 599.14ZM118.256 617.225C197.253 786.307 473.364 825.21 733.749 703.99C994.107 582.759 1141.73 346.609 1062.76 177.527C1019.61 85.152 917.625 31.6276 791.521 21.8341C925.796 29.6213 1034.93 84.8603 1080.36 182.13C1161.36 355.553 1009.73 597.891 742.327 722.404C474.934 846.89 191.494 807.068 110.492 633.644C65.1046 536.472 92.7836 417.627 172.943 310.006C99.5624 412.663 75.1629 524.934 118.257 617.224L118.256 617.225ZM106.966 635.283C188.646 810.159 474.234 850.458 743.564 725.051C1012.92 599.654 1165.58 355.386 1083.88 180.489C1039.22 84.8752 933.611 29.5046 803.028 19.4429C941.784 27.5021 1054.57 84.5996 1101.52 185.135C1185.24 364.351 1028.5 614.83 752.179 743.447C475.81 872.108 182.904 830.958 99.2086 651.766C52.2304 551.185 80.9411 428.178 164.005 316.854C87.7251 423.222 62.2927 539.636 106.966 635.283ZM95.6584 653.399C180.074 834.086 475.097 875.644 753.406 746.121C1031.71 616.538 1189.47 364.18 1105.04 183.495C1058.82 84.5275 949.396 27.2827 814.143 17.0258C957.55 25.2682 1074.14 84.2257 1122.66 188.106C1209.07 373.11 1047.29 631.715 761.983 764.535C476.731 897.375 174.306 854.872 87.8829 669.844C39.2957 565.819 69.1365 438.557 155.252 323.464C75.9279 433.62 49.3738 554.304 95.6584 653.399ZM84.3614 671.485C171.458 857.964 476.017 900.911 763.248 767.191C1050.48 633.471 1213.29 372.933 1126.2 186.452C1078.5 84.3418 965.62 25.2652 826.097 14.6509C973.785 23.2503 1093.82 84.0382 1143.82 191.063C1232.95 381.893 1066.08 648.597 771.836 785.578C477.621 922.569 165.691 878.748 76.5697 687.891C26.5354 580.769 57.1621 449.74 145.703 331.167C63.952 444.797 36.6113 569.253 84.3614 671.485ZM73.0335 689.56C162.846 881.843 476.897 926.133 773.062 788.255C1069.27 650.359 1237.15 381.722 1147.34 189.414C1098.22 84.2638 982.08 23.3745 838.469 12.3201C990.245 21.3774 1113.54 83.9883 1164.93 194.027C1256.8 390.685 1084.89 665.493 781.677 806.654C478.49 947.823 157.129 902.652 65.2576 706.008C13.9371 596.131 44.978 461.83 135.256 340.082C51.7572 456.859 24 584.576 73.0341 689.558L73.0335 689.56ZM61.7364 707.646C154.248 905.759 477.801 951.363 782.914 809.3C1088.03 667.236 1261 390.496 1168.46 192.372C1117.75 83.8207 997.659 21.0555 849.239 9.87644C1005.82 19.0431 1133.07 83.5287 1186.1 197.035C1280.64 399.473 1103.62 682.357 791.502 827.686C479.4 972.961 148.55 926.513 53.9978 724.078C1.06512 610.777 33.1984 472.253 126.466 346.756C39.9631 467.297 11.1022 599.24 61.7368 707.645L61.7364 707.646ZM50.4724 725.717C145.705 929.605 478.688 976.556 792.739 830.334C1106.84 684.126 1284.83 399.258 1189.61 195.394C1136.75 82.2186 1010.64 17.3913 855.182 7.09979C1019.08 15.2475 1152.62 81.8193 1207.85 200.077C1305.2 408.484 1123.01 699.755 801.633 849.37C480.284 998.994 139.647 951.099 42.3239 742.687C-13.0552 624.143 21.9972 478.805 121.651 347.969C29.0824 473.725 -2.52529 612.247 50.4727 725.716L50.4724 725.717ZM449.28 93.0319C457.038 89.7221 465.011 90.9405 467.308 95.8564C469.68 100.937 465.113 108.083 457.116 111.815C449.162 115.521 440.763 114.397 438.391 109.32C436.097 104.408 440.247 97.5386 447.751 93.7415C448.007 93.6176 448.26 93.4894 448.52 93.3688C448.781 93.2482 449.027 93.1443 449.28 93.0319Z" fill="black"/>
</svg>
