<svg width="160" height="46" viewBox="0 0 160 46" fill="none" xmlns="http://www.w3.org/2000/svg">
<path d="M153.333 0.921432C156.064 0.921432 158.286 3.08775 158.286 5.75V40.25C158.286 42.9122 156.064 45.0786 153.333 45.0786H5.89744C3.16692 45.0786 0.945064 42.9122 0.945064 40.25V5.75C0.945064 3.08775 3.16692 0.921432 5.89744 0.921432H153.333ZM153.333 -2.2931e-06H5.89744C2.65532 -2.2931e-06 0 2.58894 0 5.75V40.25C0 43.4111 2.65532 46 5.89744 46H153.333C156.575 46 159.231 43.4111 159.231 40.25V5.75C159.231 2.58894 156.575 -2.2931e-06 153.333 -2.2931e-06Z" fill="#828282"/>
<path d="M35.5356 22.7516C35.5014 19.0451 38.6483 17.2419 38.7922 17.158C37.01 14.6245 34.2476 14.2784 33.2769 14.2508C30.9568 14.0127 28.7064 15.6043 27.5245 15.6043C26.3191 15.6043 24.4991 14.2738 22.5376 14.3129C20.0135 14.3508 17.6522 15.7757 16.3571 17.9883C13.6844 22.4997 15.6777 29.1295 18.2384 32.7761C19.5193 34.5621 21.0161 36.5562 22.9752 36.486C24.8919 36.409 25.6079 35.2946 27.9208 35.2946C30.2126 35.2946 30.8849 36.486 32.8829 36.4412C34.94 36.409 36.235 34.6472 37.4711 32.8451C38.9514 30.7981 39.5459 28.7822 39.5694 28.6787C39.5211 28.6626 35.5745 27.194 35.5356 22.7516Z" fill="#828282"/>
<path d="M31.7612 11.8519C32.7921 10.5949 33.4974 8.88489 33.3016 7.14954C31.8096 7.21394 29.9436 8.15579 28.8691 9.38514C27.9185 10.4684 27.0692 12.244 27.2886 13.9138C28.9647 14.0357 30.6855 13.0893 31.7612 11.8519Z" fill="#828282"/>
<path d="M63.2735 36.2296H60.5949L59.1276 31.7343H54.0275L52.6298 36.2296H50.022L55.0749 20.9254H58.1958L63.2735 36.2296ZM58.6853 29.8483L57.3584 25.852C57.218 25.4438 56.955 24.4824 56.5669 22.969H56.5198C56.3653 23.6199 56.1164 24.5813 55.7743 25.852L54.471 29.8483H58.6853Z" fill="#828282"/>
<path d="M76.2678 30.5762C76.2678 32.453 75.7477 33.9365 74.7073 35.0256C73.7755 35.995 72.6185 36.4792 71.2373 36.4792C69.7464 36.4792 68.6754 35.9571 68.0232 34.9129H67.976V40.7261H65.4613V28.8271C65.4613 27.6472 65.4295 26.4362 65.3682 25.1942H67.5797L67.7201 26.9434H67.7672C68.6059 25.6255 69.8785 24.9677 71.5864 24.9677C72.9216 24.9677 74.0362 25.4817 74.9279 26.511C75.822 27.5414 76.2678 28.8961 76.2678 30.5762ZM73.706 30.6659C73.706 29.5918 73.4583 28.7063 72.9605 28.0094C72.4168 27.2826 71.6867 26.9192 70.7714 26.9192C70.151 26.9192 69.5872 27.1216 69.0835 27.5207C68.5787 27.9232 68.2485 28.4487 68.094 29.0996C68.0161 29.4032 67.9772 29.6516 67.9772 29.8471V31.6871C67.9772 32.4898 68.2296 33.1672 68.7344 33.7203C69.2392 34.2735 69.895 34.5495 70.7018 34.5495C71.6489 34.5495 72.3861 34.193 72.9133 33.4823C73.4418 32.7704 73.706 31.832 73.706 30.6659Z" fill="#828282"/>
<path d="M89.2859 30.5762C89.2859 32.453 88.7658 33.9365 87.7243 35.0256C86.7937 35.995 85.6366 36.4792 84.2554 36.4792C82.7645 36.4792 81.6936 35.9571 81.0425 34.9129H80.9953V40.7261H78.4806V28.8271C78.4806 27.6472 78.4488 26.4362 78.3875 25.1942H80.599L80.7394 26.9434H80.7865C81.624 25.6255 82.8966 24.9677 84.6057 24.9677C85.9397 24.9677 87.0543 25.4817 87.9484 26.511C88.8389 27.5414 89.2859 28.8961 89.2859 30.5762ZM86.7241 30.6659C86.7241 29.5918 86.4752 28.7063 85.9775 28.0094C85.4337 27.2826 84.706 26.9192 83.7895 26.9192C83.1679 26.9192 82.6053 27.1216 82.1005 27.5207C81.5957 27.9232 81.2666 28.4487 81.1121 29.0996C81.0354 29.4032 80.9953 29.6516 80.9953 29.8471V31.6871C80.9953 32.4898 81.2477 33.1672 81.7502 33.7203C82.255 34.2723 82.9108 34.5495 83.7199 34.5495C84.667 34.5495 85.4042 34.193 85.9315 33.4823C86.4599 32.7704 86.7241 31.832 86.7241 30.6659Z" fill="#828282"/>
<path d="M103.841 31.9378C103.841 33.2396 103.377 34.2988 102.447 35.1164C101.424 36.01 100 36.4562 98.1711 36.4562C96.4821 36.4562 95.128 36.1388 94.103 35.5028L94.6857 33.4593C95.7897 34.1102 97.001 34.4368 98.3209 34.4368C99.268 34.4368 100.005 34.2275 100.535 33.8112C101.062 33.3949 101.325 32.836 101.325 32.1391C101.325 31.5181 101.108 30.9948 100.673 30.5705C100.24 30.1461 99.5169 29.7517 98.5072 29.3871C95.759 28.3878 94.3861 26.9238 94.3861 24.9987C94.3861 23.7406 94.8673 22.7091 95.831 21.9064C96.7911 21.1025 98.072 20.7012 99.6737 20.7012C101.102 20.7012 102.289 20.9438 103.236 21.428L102.607 23.4267C101.723 22.9575 100.722 22.7229 99.603 22.7229C98.7184 22.7229 98.0272 22.9356 97.5318 23.3588C97.1131 23.7372 96.9031 24.1983 96.9031 24.7446C96.9031 25.3495 97.1426 25.8497 97.6238 26.243C98.0425 26.6064 98.8033 26.9997 99.9073 27.4241C101.258 27.9542 102.25 28.5741 102.888 29.2848C103.524 29.9932 103.841 30.8798 103.841 31.9378Z" fill="#828282"/>
<path d="M112.155 27.0342H109.383V32.3921C109.383 33.7548 109.872 34.4356 110.851 34.4356C111.3 34.4356 111.673 34.3977 111.968 34.3218L112.037 36.1836C111.542 36.3642 110.89 36.455 110.082 36.455C109.088 36.455 108.312 36.1595 107.752 35.5695C107.194 34.9784 106.913 33.9871 106.913 32.5945V27.0319H105.262V25.1919H106.913V23.1714L109.383 22.4446V25.1919H112.155V27.0342Z" fill="#828282"/>
<path d="M124.661 30.6211C124.661 32.3174 124.163 33.71 123.17 34.7991C122.129 35.9203 120.746 36.4792 119.023 36.4792C117.363 36.4792 116.04 35.9422 115.054 34.8681C114.068 33.794 113.575 32.4381 113.575 30.804C113.575 29.0939 114.082 27.6932 115.1 26.6042C116.116 25.514 117.486 24.9689 119.21 24.9689C120.87 24.9689 122.207 25.5059 123.215 26.5812C124.18 27.6242 124.661 28.9709 124.661 30.6211ZM122.052 30.7005C122.052 29.6827 121.829 28.8099 121.377 28.0819C120.85 27.201 120.097 26.7617 119.12 26.7617C118.109 26.7617 117.341 27.2022 116.814 28.0819C116.362 28.811 116.139 29.6977 116.139 30.7465C116.139 31.7642 116.362 32.6371 116.814 33.3639C117.358 34.2448 118.117 34.6841 119.098 34.6841C120.058 34.6841 120.811 34.2356 121.355 33.3409C121.819 32.5991 122.052 31.7171 122.052 30.7005Z" fill="#828282"/>
<path d="M132.835 27.3505C132.586 27.3056 132.321 27.2826 132.042 27.2826C131.158 27.2826 130.474 27.6081 129.992 28.2601C129.574 28.8351 129.364 29.5619 129.364 30.4394V36.2296H126.85L126.874 28.6695C126.874 27.3976 126.842 26.2396 126.78 25.1954H128.97L129.062 27.3068H129.131C129.397 26.5811 129.816 25.9969 130.389 25.5588C130.949 25.1643 131.554 24.9677 132.206 24.9677C132.439 24.9677 132.649 24.9838 132.835 25.0125V27.3505Z" fill="#828282"/>
<path d="M144.081 30.1899C144.081 30.6292 144.052 30.9995 143.989 31.3019H136.445C136.475 32.3921 136.839 33.2259 137.54 33.8009C138.176 34.3149 138.998 34.5725 140.007 34.5725C141.124 34.5725 142.143 34.3989 143.06 34.0504L143.454 35.7524C142.383 36.2078 141.118 36.4344 139.659 36.4344C137.904 36.4344 136.527 35.9307 135.524 34.9244C134.524 33.9182 134.023 32.5669 134.023 30.8718C134.023 29.2078 134.489 27.822 135.422 26.7169C136.398 25.537 137.718 24.947 139.379 24.947C141.01 24.947 142.245 25.537 143.084 26.7169C143.748 27.6541 144.081 28.8133 144.081 30.1899ZM141.683 29.5539C141.7 28.8271 141.536 28.1992 141.195 27.6691C140.76 26.9871 140.091 26.6467 139.191 26.6467C138.369 26.6467 137.7 26.9791 137.19 27.6461C136.771 28.1762 136.522 28.8122 136.445 29.5528H141.683V29.5539Z" fill="#828282"/>
<path d="M55.707 13.1605C55.707 13.7443 55.4832 14.2211 55.0355 14.5909C54.5944 14.9607 54.0268 15.1455 53.3327 15.1455C52.7877 15.1455 52.298 15.019 51.8633 14.766C51.4287 14.5066 51.0913 14.153 50.8513 13.7054L51.5811 13.1702C52.0352 13.8578 52.6158 14.2017 53.3229 14.2017C53.7122 14.2017 54.0333 14.1011 54.2863 13.9C54.5393 13.6989 54.6658 13.4362 54.6658 13.1118C54.6658 12.8134 54.5555 12.5766 54.3349 12.4015C54.1209 12.2263 53.8062 12.1387 53.391 12.1387H52.6029V11.2532H53.3619C53.6732 11.2532 53.9165 11.1754 54.0917 11.0197C54.2668 10.8575 54.3544 10.6434 54.3544 10.3775C54.3544 10.092 54.2636 9.86822 54.0819 9.70604C53.9003 9.53737 53.644 9.45304 53.3132 9.45304C52.7099 9.45304 52.2266 9.74172 51.8633 10.3191L51.1335 9.78389C51.5941 8.93407 52.3304 8.50916 53.3424 8.50916C53.9652 8.50916 54.4614 8.67133 54.8312 8.99569C55.2075 9.32005 55.3956 9.75469 55.3956 10.2996C55.3956 10.8381 55.162 11.2727 54.695 11.6035C55.3696 11.9279 55.707 12.4469 55.707 13.1605Z" fill="#828282"/>
<path d="M60.6593 12.1485V15.0385H59.7057V14.5033C59.3489 14.9315 58.8397 15.1455 58.178 15.1455C57.6785 15.1455 57.2763 15.019 56.9714 14.766C56.6665 14.513 56.514 14.179 56.514 13.7638C56.514 13.3486 56.673 13.0177 56.9908 12.7712C57.3087 12.5247 57.7369 12.4015 58.2753 12.4015H59.6279V12.0901C59.6279 11.7592 59.537 11.5062 59.3554 11.3311C59.1802 11.1559 58.9305 11.0683 58.6061 11.0683C58.1196 11.0683 57.6785 11.3051 57.2827 11.7787L56.6892 11.1754C57.1562 10.4942 57.8277 10.1537 58.7034 10.1537C59.3003 10.1537 59.7738 10.3288 60.1241 10.6791C60.4809 11.0294 60.6593 11.5192 60.6593 12.1485ZM59.6279 13.2286V13.141H58.4018C57.8374 13.141 57.5552 13.3356 57.5552 13.7248C57.5552 13.9195 57.6298 14.0752 57.779 14.1919C57.9347 14.3022 58.1391 14.3573 58.3921 14.3573C58.7424 14.3573 59.0343 14.2503 59.2678 14.0362C59.5079 13.8222 59.6279 13.5529 59.6279 13.2286Z" fill="#828282"/>
<path d="M62.091 15.0385V10.2607H65.4579V11.1462H63.1225V15.0385H62.091Z" fill="#828282"/>
<path d="M71.3677 12.6447C71.3677 13.3583 71.1439 13.9551 70.6963 14.4352C70.2552 14.9088 69.6973 15.1455 69.0226 15.1455C68.3609 15.1455 67.829 14.9152 67.4268 14.4547V16.79H66.405V10.2607H67.3587V10.9321C67.7219 10.4131 68.2766 10.1537 69.0226 10.1537C69.6973 10.1537 70.2552 10.3937 70.6963 10.8737C71.1439 11.3473 71.3677 11.9376 71.3677 12.6447ZM69.8984 13.7735C70.1773 13.4816 70.3168 13.1086 70.3168 12.6545C70.3168 12.2004 70.1773 11.8273 69.8984 11.5354C69.6194 11.237 69.2724 11.0878 68.8572 11.0878C68.455 11.0878 68.1144 11.224 67.8355 11.4965C67.5565 11.769 67.417 12.1517 67.417 12.6447C67.417 13.1442 67.5565 13.5302 67.8355 13.8027C68.1144 14.0752 68.455 14.2114 68.8572 14.2114C69.2724 14.2114 69.6194 14.0654 69.8984 13.7735Z" fill="#828282"/>
<path d="M75.6627 10.2607H76.7525L74.4268 15.5834C74.2257 16.0375 73.9857 16.3684 73.7068 16.576C73.4278 16.79 73.084 16.8971 72.6753 16.8971C72.4028 16.8971 72.1401 16.8646 71.8871 16.7998V15.9337C72.1531 15.9597 72.3412 15.9727 72.4515 15.9727C72.9445 15.9727 73.2916 15.7391 73.4927 15.272L73.6873 14.8244L71.7801 10.2607H72.8797L74.2517 13.7346L75.6627 10.2607Z" fill="#828282"/>
<path d="M81.1394 13.647C81.1394 14.1206 80.9707 14.4903 80.6334 14.7563C80.3026 15.0158 79.8452 15.1455 79.2614 15.1455C78.418 15.1455 77.7693 14.8439 77.3152 14.2406L77.938 13.6275C78.2753 14.0362 78.7002 14.2406 79.2127 14.2406C79.4981 14.2406 79.722 14.1822 79.8841 14.0654C80.0463 13.9422 80.1274 13.78 80.1274 13.5789C80.1274 13.3843 80.0496 13.2318 79.8939 13.1215C79.7447 13.0113 79.5338 12.9561 79.2614 12.9561H78.7067V12.1387H79.2322C79.4527 12.1387 79.6214 12.0901 79.7382 11.9928C79.8549 11.8955 79.9133 11.7625 79.9133 11.5938C79.9133 11.4316 79.8485 11.3019 79.7187 11.2046C79.5955 11.1073 79.4203 11.0586 79.1933 11.0586C78.7327 11.0586 78.3434 11.237 78.0256 11.5938L77.4028 10.9808C77.8374 10.4294 78.4505 10.1537 79.2419 10.1537C79.7674 10.1537 80.1761 10.2737 80.468 10.5137C80.7664 10.7472 80.9156 11.0781 80.9156 11.5062C80.9156 11.9474 80.7437 12.2847 80.3999 12.5182C80.8929 12.7583 81.1394 13.1345 81.1394 13.647Z" fill="#828282"/>
<path d="M86.1655 10.1537H86.5158V15.0385H85.4843V12.0706L82.7013 15.1455H82.3413V10.2607H83.3728V13.248L86.1655 10.1537Z" fill="#828282"/>
<path d="M88.968 15.0385V11.1462H87.4306V10.2607H91.5272V11.1462H89.9898V15.0385H88.968Z" fill="#828282"/>
<path d="M96.7244 12.9853H93.163C93.2279 13.3745 93.3998 13.6827 93.6787 13.9097C93.9642 14.1303 94.3112 14.2406 94.7199 14.2406C95.2259 14.2406 95.6897 14.0525 96.1114 13.6762L96.5979 14.3768C96.0595 14.8893 95.4238 15.1455 94.6907 15.1455C93.9642 15.1455 93.3544 14.9088 92.8613 14.4352C92.3683 13.9551 92.1218 13.3616 92.1218 12.6545C92.1088 11.9668 92.3488 11.3765 92.8419 10.8835C93.3349 10.384 93.9187 10.1407 94.5934 10.1537C95.2227 10.1537 95.7481 10.3645 96.1698 10.7862C96.5915 11.2013 96.8023 11.7203 96.8023 12.3431C96.8023 12.5312 96.7763 12.7453 96.7244 12.9853ZM93.1824 12.1874H95.7806C95.7741 11.8306 95.6541 11.5484 95.4205 11.3408C95.187 11.1267 94.8983 11.0197 94.5545 11.0197C94.2172 11.0197 93.922 11.1267 93.669 11.3408C93.4225 11.5484 93.2603 11.8306 93.1824 12.1874Z" fill="#828282"/>
<path d="M104.797 13.5886C104.797 14.0168 104.638 14.3671 104.32 14.6395C104.009 14.9055 103.6 15.0385 103.094 15.0385H100.71V10.2607H102.812C103.285 10.2607 103.671 10.3807 103.97 10.6207C104.268 10.8608 104.417 11.1754 104.417 11.5646C104.417 11.9474 104.271 12.2458 103.98 12.4598C104.524 12.6674 104.797 13.0437 104.797 13.5886ZM101.712 11.0878V12.1679H102.773C103.227 12.1679 103.454 11.9863 103.454 11.623C103.454 11.2662 103.227 11.0878 102.773 11.0878H101.712ZM103.824 13.5692C103.824 13.381 103.749 13.2318 103.6 13.1215C103.457 13.0113 103.256 12.9561 102.997 12.9561H101.712V14.2211H102.997C103.25 14.2211 103.451 14.1627 103.6 14.046C103.749 13.9227 103.824 13.7638 103.824 13.5692Z" fill="#828282"/>
</svg>
