<svg width="22" height="23" viewBox="0 0 22 23" fill="none" xmlns="http://www.w3.org/2000/svg">
<path d="M15.0303 9.38482C15.3232 9.09193 15.3232 8.61705 15.0303 8.32416C14.7374 8.03127 14.2626 8.03127 13.9697 8.32416L9.5 12.7938L8.03033 11.3242C7.73744 11.0313 7.26256 11.0313 6.96967 11.3242C6.67678 11.6171 6.67678 12.0919 6.96967 12.3848L8.96967 14.3848C9.26256 14.6777 9.73744 14.6777 10.0303 14.3848L15.0303 9.38482Z" fill="#212129"/>
<path fill-rule="evenodd" clip-rule="evenodd" d="M11 0.604492C5.06294 0.604492 0.25 5.41743 0.25 11.3545C0.25 17.2916 5.06294 22.1045 11 22.1045C16.9371 22.1045 21.75 17.2916 21.75 11.3545C21.75 5.41743 16.9371 0.604492 11 0.604492ZM1.75 11.3545C1.75 6.24586 5.89137 2.10449 11 2.10449C16.1086 2.10449 20.25 6.24586 20.25 11.3545C20.25 16.4631 16.1086 20.6045 11 20.6045C5.89137 20.6045 1.75 16.4631 1.75 11.3545Z" fill="#212129"/>
</svg>
