<svg width="25" height="26" viewBox="0 0 25 26" fill="none" xmlns="http://www.w3.org/2000/svg">
<g clip-path="url(#clip0_2067_448)">
<path d="M25.0001 13C25.0001 6.09644 19.4037 0.5 12.5001 0.5C5.59656 0.5 0.00012207 6.09644 0.00012207 13C0.00012207 19.239 4.57117 24.4104 10.547 25.3481V16.6133H7.37317V13H10.547V10.2461C10.547 7.11328 12.4132 5.38281 15.2684 5.38281C16.6356 5.38281 18.0665 5.62695 18.0665 5.62695V8.70313H16.4904C14.9376 8.70313 14.4532 9.66675 14.4532 10.6563V13H17.92L17.3658 16.6133H14.4532V25.3481C20.4291 24.4104 25.0001 19.239 25.0001 13Z" fill="white"/>
</g>
<defs>
<clipPath id="clip0_2067_448">
<rect width="25" height="25" fill="white" transform="translate(0.00012207 0.5)"/>
</clipPath>
</defs>
</svg>
