<svg width="25" height="26" viewBox="0 0 25 26" fill="none" xmlns="http://www.w3.org/2000/svg">
<path d="M12.5001 2.75098C15.84 2.75098 16.2355 2.76562 17.549 2.82422C18.7697 2.87793 19.4288 3.08301 19.8683 3.25391C20.4493 3.47852 20.8693 3.75195 21.3038 4.18652C21.7433 4.62598 22.0118 5.04102 22.2365 5.62207C22.4073 6.06152 22.6124 6.72559 22.6661 7.94141C22.7247 9.25977 22.7394 9.65527 22.7394 12.9902C22.7394 16.3301 22.7247 16.7256 22.6661 18.0391C22.6124 19.2598 22.4073 19.9189 22.2365 20.3584C22.0118 20.9395 21.7384 21.3594 21.3038 21.7939C20.8644 22.2334 20.4493 22.502 19.8683 22.7266C19.4288 22.8975 18.7648 23.1025 17.549 23.1563C16.2306 23.2148 15.8351 23.2295 12.5001 23.2295C9.16028 23.2295 8.76477 23.2148 7.45129 23.1563C6.23059 23.1025 5.57141 22.8975 5.13196 22.7266C4.5509 22.502 4.13098 22.2285 3.69641 21.7939C3.25696 21.3545 2.9884 20.9395 2.76379 20.3584C2.5929 19.9189 2.38782 19.2549 2.33411 18.0391C2.27551 16.7207 2.26086 16.3252 2.26086 12.9902C2.26086 9.65039 2.27551 9.25488 2.33411 7.94141C2.38782 6.7207 2.5929 6.06152 2.76379 5.62207C2.9884 5.04102 3.26184 4.62109 3.69641 4.18652C4.13586 3.74707 4.5509 3.47852 5.13196 3.25391C5.57141 3.08301 6.23547 2.87793 7.45129 2.82422C8.76477 2.76562 9.16028 2.75098 12.5001 2.75098ZM12.5001 0.5C9.10657 0.5 8.68176 0.514648 7.34875 0.573242C6.02063 0.631836 5.10754 0.84668 4.31653 1.1543C3.49133 1.47656 2.79309 1.90137 2.09973 2.59961C1.40149 3.29297 0.976685 3.99121 0.654419 4.81152C0.346802 5.60742 0.131958 6.51562 0.0733643 7.84375C0.0147705 9.18164 0.00012207 9.60645 0.00012207 13C0.00012207 16.3936 0.0147705 16.8184 0.0733643 18.1514C0.131958 19.4795 0.346802 20.3926 0.654419 21.1836C0.976685 22.0088 1.40149 22.707 2.09973 23.4004C2.79309 24.0938 3.49133 24.5234 4.31165 24.8408C5.10754 25.1484 6.01575 25.3633 7.34387 25.4219C8.67688 25.4805 9.10168 25.4951 12.4952 25.4951C15.8888 25.4951 16.3136 25.4805 17.6466 25.4219C18.9747 25.3633 19.8878 25.1484 20.6788 24.8408C21.4991 24.5234 22.1974 24.0938 22.8907 23.4004C23.5841 22.707 24.0138 22.0088 24.3312 21.1885C24.6388 20.3926 24.8536 19.4844 24.9122 18.1563C24.9708 16.8232 24.9855 16.3984 24.9855 13.0049C24.9855 9.61133 24.9708 9.18652 24.9122 7.85352C24.8536 6.52539 24.6388 5.61231 24.3312 4.82129C24.0236 3.99121 23.5988 3.29297 22.9005 2.59961C22.2072 1.90625 21.5089 1.47656 20.6886 1.15918C19.8927 0.851562 18.9845 0.636719 17.6564 0.578125C16.3185 0.514648 15.8937 0.5 12.5001 0.5Z" fill="white"/>
<path d="M12.5001 6.5791C8.9552 6.5791 6.07922 9.45508 6.07922 13C6.07922 16.5449 8.9552 19.4209 12.5001 19.4209C16.045 19.4209 18.921 16.5449 18.921 13C18.921 9.45508 16.045 6.5791 12.5001 6.5791ZM12.5001 17.165C10.2003 17.165 8.33508 15.2998 8.33508 13C8.33508 10.7002 10.2003 8.83496 12.5001 8.83496C14.7999 8.83496 16.6652 10.7002 16.6652 13C16.6652 15.2998 14.7999 17.165 12.5001 17.165Z" fill="white"/>
<path d="M20.6739 6.3252C20.6739 7.15528 20.0001 7.82422 19.1749 7.82422C18.3448 7.82422 17.6759 7.15039 17.6759 6.3252C17.6759 5.49512 18.3497 4.82617 19.1749 4.82617C20.0001 4.82617 20.6739 5.5 20.6739 6.3252Z" fill="white"/>
</svg>
