<svg width="25" height="26" viewBox="0 0 25 26" fill="none" xmlns="http://www.w3.org/2000/svg">
<g clip-path="url(#clip0_2067_460)">
<path d="M23.1495 0.5H1.84583C0.825317 0.5 0.00012207 1.30566 0.00012207 2.30176V23.6934C0.00012207 24.6895 0.825317 25.5 1.84583 25.5H23.1495C24.17 25.5 25.0001 24.6895 25.0001 23.6982V2.30176C25.0001 1.30566 24.17 0.5 23.1495 0.5ZM7.41711 21.8037H3.70618V9.87012H7.41711V21.8037ZM5.56165 8.24414C4.37024 8.24414 3.40833 7.28223 3.40833 6.0957C3.40833 4.90918 4.37024 3.94727 5.56165 3.94727C6.74817 3.94727 7.71008 4.90918 7.71008 6.0957C7.71008 7.27734 6.74817 8.24414 5.56165 8.24414ZM21.3038 21.8037H17.5978V16.0029C17.5978 14.6211 17.5734 12.8389 15.6691 12.8389C13.7404 12.8389 13.4474 14.3477 13.4474 15.9053V21.8037H9.74622V9.87012H13.3009V11.501H13.3497C13.8429 10.5635 15.0538 9.57227 16.8556 9.57227C20.6105 9.57227 21.3038 12.043 21.3038 15.2559V21.8037Z" fill="white"/>
</g>
<defs>
<clipPath id="clip0_2067_460">
<rect width="25" height="25" fill="white" transform="translate(0.00012207 0.5)"/>
</clipPath>
</defs>
</svg>
