<svg width="268" height="53" viewBox="0 0 268 53" fill="none" xmlns="http://www.w3.org/2000/svg">
<path d="M11.3855 10.9431V42.2177C11.3855 42.9413 10.5837 43.3835 9.98238 42.9815L3.44773 38.9214C1.28288 37.5546 0 35.2231 0 32.6906V1.41602C0 0.692443 0.801798 0.250257 1.40315 0.652244L7.9378 4.75251C10.1026 6.03887 11.3855 8.41059 11.3855 10.9431Z" fill="#F3CC50"/>
<path d="M28.2232 10.9431V51.584C28.2232 52.3076 27.4214 52.7497 26.82 52.3478L20.2854 48.2475C18.1606 46.9209 16.8376 44.5492 16.8376 42.0167V1.41602C16.8376 0.692443 17.6394 0.250257 18.2408 0.652244L24.7754 4.75251C26.9403 6.03887 28.2232 8.41059 28.2232 10.9431Z" fill="#F3CC50"/>
<path d="M89.7213 44.4689H84.1889C83.6677 44.4689 83.2267 44.0267 83.2267 43.5041V30.2385C83.2267 28.711 82.8659 27.4648 82.1042 26.6207C81.3425 25.7363 80.22 25.2941 78.7767 25.2941C77.2934 25.2941 76.1709 25.7765 75.3691 26.701C74.5673 27.706 74.2065 28.8718 74.2065 30.2385V43.5041C74.2065 44.0267 73.7655 44.4689 73.2443 44.4689H67.7119C67.1907 44.4689 66.7498 44.0267 66.7498 43.5041V19.8271C66.7498 19.3045 67.1907 18.8623 67.7119 18.8623H73.2042C73.7254 18.8623 74.1664 19.3045 74.1664 19.8271V22.1988H74.2065C75.1285 20.5908 76.4515 19.5055 78.2155 18.9427C79.5785 18.5407 80.6609 18.3397 81.4627 18.3397C84.5096 18.3397 86.7947 19.3045 88.3582 21.2742C89.9217 23.244 90.6834 25.6559 90.6834 28.5502V43.5041C90.6834 44.0669 90.2424 44.4689 89.7213 44.4689Z" fill="#212129"/>
<path d="M237.733 44.4689H232.201C231.679 44.4689 231.238 44.0267 231.238 43.5041V30.2385C231.238 28.711 230.878 27.4648 230.116 26.6207C229.354 25.7363 228.232 25.2941 226.789 25.2941C225.305 25.2941 224.183 25.7765 223.381 26.701C222.579 27.706 222.218 28.8718 222.218 30.2385V43.5041C222.218 44.0267 221.777 44.4689 221.256 44.4689H215.684C215.162 44.4689 214.721 44.0267 214.721 43.5041V19.8271C214.721 19.3045 215.162 18.8623 215.684 18.8623H221.176C221.697 18.8623 222.138 19.3045 222.138 19.8271V22.1988H222.178C223.1 20.5908 224.423 19.5055 226.187 18.9427C227.55 18.5407 228.633 18.3397 229.434 18.3397C232.481 18.3397 234.766 19.3045 236.33 21.2742C237.893 23.244 238.655 25.6559 238.655 28.5502V43.5041C238.655 44.0669 238.254 44.4689 237.733 44.4689Z" fill="#212129"/>
<path d="M108.924 44.4689H102.67C102.269 44.4689 101.908 44.2277 101.788 43.8659L92.2067 20.1889C91.9662 19.5457 92.4072 18.8623 93.0887 18.8623H98.9017C99.3026 18.8623 99.6634 19.1035 99.7837 19.5055L105.837 35.9869L111.931 19.5055C112.051 19.1437 112.412 18.8623 112.813 18.8623H118.626C119.307 18.8623 119.789 19.5457 119.508 20.1889L109.846 43.8659C109.686 44.2277 109.325 44.4689 108.924 44.4689Z" fill="#212129"/>
<path d="M159.077 45.0316C156.19 45.0316 153.865 44.3885 152.101 43.0619C151.259 42.4589 150.578 41.8157 150.056 41.0922C149.295 40.2078 148.693 38.6802 148.413 37.5145C148.252 36.9115 148.733 36.3085 149.335 36.3085H154.266C154.627 36.3085 154.987 36.5095 155.148 36.8713C155.308 37.2733 155.629 37.7557 156.11 38.1577C156.872 38.8812 157.834 39.243 158.996 39.243C159.919 39.243 160.64 39.0018 161.161 38.5597C161.683 38.1175 161.963 37.5949 161.963 37.0321C161.963 35.9467 161.121 35.183 159.478 34.8212L156.23 34.0976C151.339 33.0122 148.894 30.5199 148.894 26.6206C148.894 24.2891 149.816 22.3194 151.66 20.7114C153.544 19.0633 155.869 18.2191 158.636 18.2191C162.364 18.2191 165.17 19.3849 167.055 21.7164C167.856 22.641 168.418 23.8067 168.738 25.0529C168.899 25.6559 168.418 26.2589 167.816 26.2589H162.925C162.564 26.2589 162.244 26.0579 162.083 25.7363C161.923 25.4147 161.642 25.0931 161.201 24.7313C160.56 24.2087 159.718 23.9273 158.716 23.9273C157.874 23.9273 157.233 24.1283 156.671 24.5303C156.15 24.9323 155.869 25.4549 155.869 26.0579C155.869 27.0226 156.551 27.6256 157.874 27.907L161.402 28.6708C163.887 29.1532 165.812 30.0777 167.175 31.4445C168.498 32.8112 169.179 34.4996 169.179 36.4291C169.179 38.6802 168.337 40.6098 166.694 42.2579C164.89 44.1473 162.324 45.0316 159.077 45.0316Z" fill="#212129"/>
<path d="M204.178 15.767L207.826 18.1789C209.309 19.1839 210.231 20.832 210.231 22.641V43.5041C210.231 44.0267 209.79 44.4689 209.269 44.4689H203.657C203.135 44.4689 202.694 44.0267 202.694 43.5041V16.5308C202.735 15.8072 203.536 15.365 204.178 15.767Z" fill="#212129"/>
<path d="M179.603 25.3745H184.975C185.496 25.3745 185.937 24.9323 185.937 24.4097V19.8271C185.937 19.3045 185.496 18.8623 184.975 18.8623H179.603V16.2896C179.603 14.4807 178.761 12.7521 177.277 11.6667L174.391 9.49602C173.509 8.85284 172.306 9.45582 172.306 10.5412L172.186 33.1328C172.186 39.4038 177.237 44.4689 183.491 44.4689H184.975C185.496 44.4689 185.937 44.0267 185.937 43.5041V38.9215C185.937 38.3989 185.496 37.9567 184.975 37.9567C182.008 37.9567 179.603 35.5448 179.603 32.5701V25.3745Z" fill="#212129"/>
<path d="M142.399 21.7968C140.034 19.425 136.987 18.2593 133.219 18.2593C130.733 18.2593 128.528 18.8623 126.483 20.028C124.359 21.2742 122.715 22.8821 121.512 24.9323C120.27 26.9824 119.668 29.2335 119.668 31.6856C119.668 34.178 120.31 36.5095 121.552 38.64C122.835 40.7303 124.559 42.2981 126.644 43.3835C128.809 44.509 131.134 45.0718 133.7 45.0718C136.265 45.0718 138.631 44.3884 140.755 43.0619C142.279 42.0971 143.041 41.2931 143.522 40.5696C143.802 40.0872 143.682 39.4842 143.201 39.2028L139.112 36.7909C138.711 36.5497 138.23 36.6301 137.949 36.9517C137.628 37.2733 137.268 37.5948 136.787 37.836C135.704 38.4792 134.622 38.8008 133.539 38.8008C131.936 38.8008 130.533 38.3184 129.37 37.3939C128.167 36.4291 127.486 35.2231 127.245 33.7358H136.867H144.323C145.165 33.7358 145.887 33.0524 145.927 32.2082C145.927 31.8464 145.927 31.4846 145.927 31.0827C145.927 27.2638 144.764 24.1685 142.399 21.7968ZM127.446 28.7511C127.566 27.7462 128.167 26.7412 129.21 25.7764C130.212 24.8117 131.455 24.3293 133.018 24.3293C134.822 24.3293 136.185 24.8519 137.147 25.8568C137.949 26.7412 138.39 27.706 138.47 28.7511H127.446Z" fill="#212129"/>
<path d="M56.246 3.90838L59.0924 5.87811C60.9365 7.16447 62.0189 9.2548 62.0189 11.5059V43.5041C62.0189 44.0267 61.5779 44.4689 61.0568 44.4689H55.4843C54.9631 44.4689 54.5221 44.0267 54.5221 43.5041V4.83295C54.482 3.94857 55.5244 3.42599 56.246 3.90838Z" fill="#212129"/>
<path d="M191.95 4.67212L194.797 6.64185C196.641 7.92821 197.723 10.0185 197.723 12.2697V43.504C197.723 44.0266 197.282 44.4688 196.761 44.4688H191.189C190.667 44.4688 190.226 44.0266 190.226 43.504V5.59669C190.226 4.67212 191.229 4.14954 191.95 4.67212Z" fill="#212129"/>
<path d="M244.949 4.67212L247.796 6.64185C249.64 7.92821 250.722 10.0185 250.722 12.2697V43.504C250.722 44.0266 250.281 44.4688 249.76 44.4688H244.147C243.626 44.4688 243.185 44.0266 243.185 43.504V5.59669C243.185 4.67212 244.187 4.14954 244.949 4.67212Z" fill="#212129"/>
<path d="M260.544 30.0776L267.8 20.6711C268.281 20.028 267.84 19.1034 267.039 19.1034H260.905C260.624 19.1034 260.344 19.224 260.143 19.4652L253.729 27.7863C251.925 30.1178 251.925 33.4141 253.729 35.7457L260.143 44.0668C260.344 44.308 260.624 44.4286 260.905 44.4286H267.039C267.84 44.4286 268.281 43.504 267.8 42.8608L260.544 33.4945C259.782 32.5298 259.782 31.0826 260.544 30.0776Z" fill="#212129"/>
<path d="M208.267 5.87805H204.699C203.616 5.87805 202.734 6.76242 202.734 7.84779V11.4255C202.734 12.5108 203.616 13.3952 204.699 13.3952H208.267C209.349 13.3952 210.231 12.5108 210.231 11.4255V7.84779C210.231 6.76242 209.349 5.87805 208.267 5.87805Z" fill="#212129"/>
</svg>
