<svg width="160" height="46" viewBox="0 0 160 46" fill="none" xmlns="http://www.w3.org/2000/svg">
<path d="M153.123 0.921437C155.849 0.921437 158.068 3.08775 158.068 5.75V40.25C158.068 42.9123 155.849 45.0786 153.123 45.0786H5.88933C3.16257 45.0786 0.943765 42.9123 0.943765 40.25V5.75C0.943765 3.08775 3.16257 0.921437 5.88933 0.921437H153.123ZM153.123 2.43107e-06H5.88933C2.65167 2.43107e-06 0 2.58894 0 5.75V40.25C0 43.4111 2.65167 46 5.88933 46H153.123C156.36 46 159.012 43.4111 159.012 40.25V5.75C159.012 2.58894 156.36 2.43107e-06 153.123 2.43107e-06Z" fill="#828282"/>
<path d="M53.9377 13.1605C53.9377 13.7443 53.7139 14.2211 53.2663 14.5909C52.8251 14.9607 52.2575 15.1455 51.5634 15.1455C51.0185 15.1455 50.5287 15.019 50.094 14.766C49.6594 14.5066 49.3221 14.153 49.082 13.7054L49.8118 13.1702C50.2659 13.8578 50.8465 14.2017 51.5536 14.2017C51.9429 14.2017 52.264 14.1011 52.517 13.9C52.77 13.6989 52.8965 13.4362 52.8965 13.1118C52.8965 12.8134 52.7862 12.5766 52.5656 12.4015C52.3516 12.2263 52.0369 12.1387 51.6218 12.1387H50.8336V11.2532H51.5926C51.904 11.2532 52.1472 11.1754 52.3224 11.0197C52.4975 10.8575 52.5851 10.6434 52.5851 10.3775C52.5851 10.092 52.4943 9.86822 52.3126 9.70604C52.131 9.53737 51.8748 9.45304 51.5439 9.45304C50.9406 9.45304 50.4573 9.74172 50.094 10.3191L49.3642 9.78389C49.8248 8.93407 50.5611 8.50916 51.5731 8.50916C52.1959 8.50916 52.6921 8.67133 53.0619 8.99569C53.4382 9.32005 53.6263 9.75469 53.6263 10.2996C53.6263 10.8381 53.3928 11.2727 52.9257 11.6035C53.6004 11.9279 53.9377 12.4469 53.9377 13.1605Z" fill="#828282"/>
<path d="M58.89 12.1485V15.0385H57.9364V14.5033C57.5796 14.9315 57.0704 15.1455 56.4087 15.1455C55.9092 15.1455 55.507 15.019 55.2021 14.766C54.8972 14.513 54.7447 14.179 54.7447 13.7638C54.7447 13.3486 54.9037 13.0177 55.2215 12.7712C55.5394 12.5247 55.9676 12.4015 56.506 12.4015H57.8586V12.0901C57.8586 11.7592 57.7678 11.5062 57.5861 11.3311C57.411 11.1559 57.1612 11.0683 56.8368 11.0683C56.3503 11.0683 55.9092 11.3051 55.5135 11.7787L54.9199 11.1754C55.387 10.4942 56.0584 10.1537 56.9342 10.1537C57.531 10.1537 58.0045 10.3288 58.3548 10.6791C58.7116 11.0294 58.89 11.5192 58.89 12.1485ZM57.8586 13.2286V13.141H56.6325C56.0681 13.141 55.7859 13.3356 55.7859 13.7248C55.7859 13.9195 55.8605 14.0752 56.0097 14.1919C56.1654 14.3022 56.3698 14.3573 56.6228 14.3573C56.9731 14.3573 57.265 14.2503 57.4985 14.0362C57.7386 13.8222 57.8586 13.5529 57.8586 13.2286Z" fill="#828282"/>
<path d="M60.3218 15.0385V10.2607H63.6886V11.1462H61.3532V15.0385H60.3218Z" fill="#828282"/>
<path d="M69.5984 12.6447C69.5984 13.3583 69.3746 13.9551 68.927 14.4352C68.4859 14.9088 67.928 15.1455 67.2533 15.1455C66.5916 15.1455 66.0597 14.9152 65.6575 14.4547V16.79H64.6358V10.2607H65.5894V10.9321C65.9527 10.4131 66.5073 10.1537 67.2533 10.1537C67.928 10.1537 68.4859 10.3937 68.927 10.8737C69.3746 11.3473 69.5984 11.9376 69.5984 12.6447ZM68.1291 13.7735C68.408 13.4816 68.5475 13.1086 68.5475 12.6545C68.5475 12.2004 68.408 11.8273 68.1291 11.5354C67.8501 11.237 67.5031 11.0878 67.0879 11.0878C66.6857 11.0878 66.3451 11.224 66.0662 11.4965C65.7872 11.769 65.6478 12.1517 65.6478 12.6447C65.6478 13.1442 65.7872 13.5302 66.0662 13.8027C66.3451 14.0752 66.6857 14.2114 67.0879 14.2114C67.5031 14.2114 67.8501 14.0654 68.1291 13.7735Z" fill="#828282"/>
<path d="M73.8934 10.2607H74.9832L72.6576 15.5834C72.4565 16.0375 72.2164 16.3684 71.9375 16.576C71.6585 16.79 71.3147 16.8971 70.906 16.8971C70.6336 16.8971 70.3708 16.8646 70.1178 16.7998V15.9337C70.3838 15.9597 70.5719 15.9727 70.6822 15.9727C71.1752 15.9727 71.5223 15.7391 71.7234 15.272L71.918 14.8244L70.0108 10.2607H71.1104L72.4824 13.7346L73.8934 10.2607Z" fill="#828282"/>
<path d="M79.3701 13.647C79.3701 14.1206 79.2014 14.4903 78.8641 14.7563C78.5333 15.0158 78.0759 15.1455 77.4921 15.1455C76.6487 15.1455 76 14.8439 75.5459 14.2406L76.1687 13.6275C76.506 14.0362 76.9309 14.2406 77.4434 14.2406C77.7289 14.2406 77.9527 14.1822 78.1148 14.0654C78.277 13.9422 78.3581 13.78 78.3581 13.5789C78.3581 13.3843 78.2803 13.2318 78.1246 13.1215C77.9754 13.0113 77.7645 12.9561 77.4921 12.9561H76.9374V12.1387H77.4629C77.6834 12.1387 77.8521 12.0901 77.9689 11.9928C78.0856 11.8955 78.144 11.7625 78.144 11.5938C78.144 11.4316 78.0792 11.3019 77.9494 11.2046C77.8262 11.1073 77.651 11.0586 77.424 11.0586C76.9634 11.0586 76.5741 11.237 76.2563 11.5938L75.6335 10.9808C76.0681 10.4294 76.6812 10.1537 77.4726 10.1537C77.9981 10.1537 78.4068 10.2737 78.6987 10.5137C78.9971 10.7472 79.1463 11.0781 79.1463 11.5062C79.1463 11.9474 78.9744 12.2847 78.6306 12.5182C79.1236 12.7583 79.3701 13.1345 79.3701 13.647Z" fill="#828282"/>
<path d="M84.3962 10.1537H84.7465V15.0385H83.7151V12.0706L80.9321 15.1455H80.572V10.2607H81.6035V13.248L84.3962 10.1537Z" fill="#828282"/>
<path d="M87.1987 15.0385V11.1462H85.6613V10.2607H89.7579V11.1462H88.2205V15.0385H87.1987Z" fill="#828282"/>
<path d="M94.9552 12.9853H91.3937C91.4586 13.3745 91.6305 13.6827 91.9094 13.9097C92.1949 14.1303 92.5419 14.2406 92.9506 14.2406C93.4566 14.2406 93.9204 14.0525 94.3421 13.6762L94.8287 14.3768C94.2902 14.8893 93.6545 15.1455 92.9214 15.1455C92.1949 15.1455 91.5851 14.9088 91.092 14.4352C90.599 13.9551 90.3525 13.3616 90.3525 12.6545C90.3395 11.9668 90.5796 11.3765 91.0726 10.8835C91.5656 10.384 92.1494 10.1407 92.8241 10.1537C93.4534 10.1537 93.9788 10.3645 94.4005 10.7862C94.8222 11.2013 95.033 11.7203 95.033 12.3431C95.033 12.5312 95.0071 12.7453 94.9552 12.9853ZM91.4132 12.1874H94.0113C94.0048 11.8306 93.8848 11.5484 93.6512 11.3408C93.4177 11.1267 93.129 11.0197 92.7852 11.0197C92.4479 11.0197 92.1527 11.1267 91.8997 11.3408C91.6532 11.5484 91.491 11.8306 91.4132 12.1874Z" fill="#828282"/>
<path d="M103.028 13.5886C103.028 14.0168 102.869 14.3671 102.551 14.6395C102.239 14.9055 101.831 15.0385 101.325 15.0385H98.9407V10.2607H101.043C101.516 10.2607 101.902 10.3807 102.201 10.6207C102.499 10.8608 102.648 11.1754 102.648 11.5646C102.648 11.9474 102.502 12.2458 102.21 12.4598C102.755 12.6674 103.028 13.0437 103.028 13.5886ZM99.943 11.0878V12.1679H101.004C101.458 12.1679 101.685 11.9863 101.685 11.623C101.685 11.2662 101.458 11.0878 101.004 11.0878H99.943ZM102.055 13.5692C102.055 13.381 101.98 13.2318 101.831 13.1215C101.688 13.0113 101.487 12.9561 101.227 12.9561H99.943V14.2211H101.227C101.48 14.2211 101.682 14.1627 101.831 14.046C101.98 13.9227 102.055 13.7638 102.055 13.5692Z" fill="#828282"/>
<path d="M146.212 25.3626L143.76 31.8391H143.687L141.128 25.3626H138.815L142.649 34.4161L140.458 39.4515H142.706L148.615 25.3626H146.212ZM128.885 19.9882H126.743V34.9247H128.885V19.9882ZM120.826 19.9882H115.676V34.9247H117.834V29.2705H120.834C121.438 29.292 122.041 29.1887 122.607 28.9665C123.173 28.7444 123.691 28.4078 124.131 27.9764C124.57 27.545 124.923 27.0274 125.168 26.4535C125.413 25.8797 125.545 25.2611 125.558 24.6336C125.545 24.005 125.412 23.3853 125.167 22.8104C124.922 22.2355 124.568 21.717 124.128 21.2848C123.688 20.8526 123.169 20.5154 122.602 20.2929C122.035 20.0703 121.431 19.9667 120.826 19.9882ZM120.883 27.1852H117.834V22.099H120.891C121.541 22.099 122.165 22.3669 122.625 22.8438C123.085 23.3207 123.343 23.9676 123.343 24.6421C123.343 25.3166 123.085 25.9634 122.625 26.4403C122.165 26.9173 121.541 27.1852 120.891 27.1852H120.883ZM134.165 25.0405C133.38 24.9938 132.6 25.1855 131.919 25.5921C131.238 25.9986 130.686 26.6024 130.331 27.3293L132.244 28.177C132.433 27.8176 132.72 27.5234 133.068 27.3307C133.417 27.1379 133.812 27.0549 134.206 27.0919C134.476 27.0639 134.748 27.0915 135.008 27.1731C135.268 27.2547 135.51 27.3888 135.719 27.5676C135.929 27.7465 136.102 27.9665 136.23 28.2151C136.357 28.4637 136.436 28.736 136.461 29.0162V29.1688C135.776 28.7844 135.009 28.5833 134.23 28.5839C132.178 28.5839 130.086 29.7537 130.086 31.9747C130.086 33.9753 131.762 35.2638 133.658 35.2638C134.197 35.2994 134.736 35.1825 135.217 34.9258C135.698 34.6691 136.102 34.282 136.388 33.8058H136.47V34.9587H138.562V29.2112C138.562 26.5579 136.649 25.0829 134.181 25.0829L134.165 25.0405ZM133.911 33.2293C133.208 33.2293 132.228 32.8563 132.228 31.9578C132.228 30.8049 133.445 30.3641 134.508 30.3641C135.193 30.3451 135.871 30.5178 136.47 30.8642C136.391 31.5125 136.088 32.1092 135.618 32.544C135.147 32.9787 134.541 33.2222 133.911 33.2293ZM56.4104 35.2469C54.3766 35.2538 52.422 34.4294 50.9701 32.9521C49.5182 31.4749 48.686 29.4639 48.6538 27.3547C48.686 25.2456 49.5182 23.2345 50.9701 21.7573C52.422 20.2801 54.3766 19.4556 56.4104 19.4626C57.3796 19.4459 58.3422 19.6299 59.2418 20.004C60.1415 20.3781 60.9601 20.9347 61.6496 21.6412L60.1702 23.1586C59.1668 22.1389 57.8152 21.5721 56.4104 21.5819C54.9429 21.5819 53.5354 22.1865 52.4977 23.2628C51.46 24.339 50.877 25.7988 50.877 27.3208C50.877 28.8429 51.46 30.3026 52.4977 31.3789C53.5354 32.4552 54.9429 33.0598 56.4104 33.0598C57.1246 33.0902 57.837 32.9648 58.5016 32.6918C59.1661 32.4187 59.768 32.004 60.2683 31.4746C60.9335 30.7307 61.3343 29.7739 61.4044 28.7619H56.4104V26.6681H63.4396C63.5163 27.1128 63.5519 27.5642 63.5459 28.0159C63.6165 29.8925 62.9669 31.7215 61.7395 33.1022C61.0466 33.8282 60.2138 34.3944 59.2955 34.764C58.3773 35.1335 57.3942 35.2981 56.4104 35.2469ZM74.4166 30.1606C74.4434 30.8387 74.3378 31.5154 74.1061 32.1501C73.8745 32.7848 73.5215 33.3643 73.0684 33.854C72.6153 34.3436 72.0714 34.7331 71.4695 34.9993C70.8676 35.2654 70.22 35.4026 69.5656 35.4026C68.9113 35.4026 68.2637 35.2654 67.6618 34.9993C67.0598 34.7331 66.516 34.3436 66.0629 33.854C65.6098 33.3643 65.2568 32.7848 65.0251 32.1501C64.7934 31.5154 64.6878 30.8387 64.7147 30.1606C64.6878 29.4826 64.7934 28.8059 65.0251 28.1712C65.2568 27.5365 65.6098 26.9569 66.0629 26.4673C66.516 25.9777 67.0598 25.5881 67.6618 25.322C68.2637 25.0559 68.9113 24.9187 69.5656 24.9187C70.22 24.9187 70.8676 25.0559 71.4695 25.322C72.0714 25.5881 72.6153 25.9777 73.0684 26.4673C73.5215 26.9569 73.8745 27.5365 74.1061 28.1712C74.3378 28.8059 74.4434 29.4826 74.4166 30.1606ZM72.2915 30.1606C72.3275 29.7668 72.2839 29.3696 72.1633 28.9943C72.0427 28.619 71.8478 28.274 71.5912 27.9814C71.3346 27.6888 71.0218 27.455 70.673 27.295C70.3242 27.135 69.947 27.0524 69.5656 27.0524C69.1842 27.0524 68.807 27.135 68.4582 27.295C68.1094 27.455 67.7967 27.6888 67.54 27.9814C67.2834 28.274 67.0886 28.619 66.968 28.9943C66.8474 29.3696 66.8037 29.7668 66.8398 30.1606C66.8037 30.5544 66.8474 30.9517 66.968 31.327C67.0886 31.7022 67.2834 32.0472 67.54 32.3399C67.7967 32.6325 68.1094 32.8663 68.4582 33.0263C68.807 33.1863 69.1842 33.2689 69.5656 33.2689C69.947 33.2689 70.3242 33.1863 70.673 33.0263C71.0218 32.8663 71.3346 32.6325 71.5912 32.3399C71.8478 32.0472 72.0427 31.7022 72.1633 31.327C72.2839 30.9517 72.3275 30.5544 72.2915 30.1606ZM85.2873 30.1606C85.2873 31.4939 84.7766 32.7725 83.8677 33.7152C82.9587 34.6579 81.7259 35.1875 80.4404 35.1875C79.155 35.1875 77.9221 34.6579 77.0132 33.7152C76.1042 32.7725 75.5936 31.4939 75.5936 30.1606C75.5936 28.8274 76.1042 27.5488 77.0132 26.6061C77.9221 25.6634 79.155 25.1337 80.4404 25.1337C81.7259 25.1337 82.9587 25.6634 83.8677 26.6061C84.7766 27.5488 85.2873 28.8274 85.2873 30.1606ZM83.1704 30.1606C83.2064 29.7668 83.1628 29.3696 83.0422 28.9943C82.9216 28.619 82.7267 28.274 82.4701 27.9814C82.2135 27.6888 81.9007 27.455 81.5519 27.295C81.2031 27.135 80.8259 27.0524 80.4445 27.0524C80.0631 27.0524 79.6859 27.135 79.3371 27.295C78.9883 27.455 78.6756 27.6888 78.4189 27.9814C78.1623 28.274 77.9675 28.619 77.8469 28.9943C77.7263 29.3696 77.6826 29.7668 77.7187 30.1606C77.6826 30.5544 77.7263 30.9517 77.8469 31.327C77.9675 31.7022 78.1623 32.0472 78.4189 32.3399C78.6756 32.6325 78.9883 32.8663 79.3371 33.0263C79.6859 33.1863 80.0631 33.2689 80.4445 33.2689C80.8259 33.2689 81.2031 33.1863 81.5519 33.0263C81.9007 32.8663 82.2135 32.6325 82.4701 32.3399C82.7267 32.0472 82.9216 31.7022 83.0422 31.327C83.1628 30.9517 83.2064 30.5544 83.1704 30.1606ZM95.8965 25.3881V34.5178C95.8965 38.2647 93.7468 39.8075 91.2131 39.8075C90.2843 39.8156 89.374 39.5381 88.5972 39.0101C87.8204 38.482 87.2118 37.7271 86.8484 36.8406L88.7038 35.9929C88.8963 36.5104 89.2315 36.9577 89.6676 37.2788C90.1037 37.5999 90.6213 37.7807 91.1558 37.7985C92.7905 37.7985 93.7877 36.7558 93.7877 34.8145V34.0855H93.706C93.3854 34.4565 92.9919 34.7521 92.5521 34.9524C92.1123 35.1528 91.6362 35.2531 91.1558 35.2469C89.8552 35.2469 88.6078 34.711 87.6881 33.7572C86.7684 32.8033 86.2518 31.5096 86.2518 30.1606C86.2518 28.8117 86.7684 27.518 87.6881 26.5641C88.6078 25.6103 89.8552 25.0744 91.1558 25.0744C91.6394 25.0634 92.1196 25.1589 92.5649 25.3547C93.0101 25.5506 93.4102 25.8422 93.7387 26.2103H93.8204V25.3626H95.8965V25.3881ZM93.992 30.1861C94.0221 29.8024 93.9775 29.4164 93.8609 29.051C93.7443 28.6856 93.5582 28.3481 93.3134 28.0588C93.0687 27.7694 92.7705 27.5339 92.4363 27.3664C92.1022 27.1989 91.739 27.1026 91.3684 27.0835C90.9905 27.0965 90.6188 27.1875 90.2752 27.3512C89.9316 27.5149 89.623 27.748 89.3672 28.0369C89.1115 28.3257 88.9139 28.6646 88.786 29.0336C88.658 29.4027 88.6023 29.7944 88.6221 30.1861C88.6045 30.5751 88.6621 30.9637 88.7913 31.3293C88.9206 31.695 89.1189 32.0301 89.3747 32.3152C89.6305 32.6002 89.9386 32.8294 90.281 32.9893C90.6233 33.1492 90.993 33.2366 91.3684 33.2463C91.7368 33.2315 92.0986 33.1396 92.432 32.9763C92.7654 32.8129 93.0635 32.5814 93.3085 32.2956C93.5535 32.0099 93.7404 31.6757 93.8578 31.3132C93.9753 30.9507 94.0209 30.5673 93.992 30.1861ZM99.6808 20.0051V34.9332H97.523V20.0051H99.6808ZM108.181 31.8391L109.865 32.992C109.415 33.6877 108.807 34.2576 108.094 34.651C107.381 35.0444 106.586 35.249 105.778 35.2469C105.136 35.2564 104.498 35.1307 103.904 34.8772C103.31 34.6238 102.771 34.248 102.321 33.7725C101.871 33.297 101.519 32.7317 101.286 32.1109C101.052 31.4901 100.943 30.8266 100.964 30.1606C100.868 29.0158 101.182 27.8744 101.846 26.9541C102.509 26.0338 103.476 25.399 104.562 25.1706C105.648 24.9422 106.777 25.1362 107.734 25.7157C108.691 26.2952 109.409 27.2196 109.75 28.3126L109.971 28.8976L103.432 31.7035C103.636 32.1784 103.972 32.5793 104.398 32.8542C104.823 33.1292 105.318 33.2658 105.819 33.2463C106.295 33.2385 106.762 33.1053 107.175 32.8592C107.589 32.613 107.935 32.262 108.181 31.8391ZM103.024 30.0081L107.421 28.1261C107.251 27.7807 106.987 27.4945 106.661 27.3032C106.336 27.1118 105.963 27.0236 105.59 27.0496C105.233 27.0657 104.883 27.1555 104.56 27.3136C104.237 27.4718 103.948 27.695 103.709 27.9705C103.47 28.2459 103.286 28.5679 103.168 28.9178C103.051 29.2676 103.002 29.6383 103.024 30.0081Z" fill="#828282"/>
<path fill-rule="evenodd" clip-rule="evenodd" d="M24.0642 23.2713L30.1692 29.2159L35.4654 26.1487C35.9747 25.8782 36.4013 25.4715 36.699 24.9727C36.9966 24.4739 37.154 23.902 37.154 23.3189C37.154 22.7358 36.9966 22.1639 36.699 21.6651C36.4013 21.1663 35.9747 20.7596 35.4654 20.4891H35.4832L30.135 17.3823L24.0642 23.2713Z" fill="#828282"/>
<path fill-rule="evenodd" clip-rule="evenodd" d="M23.5333 22.7547L11.6265 11.161C11.8256 10.5023 12.2249 9.92338 12.768 9.50749C13.3302 9.07701 14.0157 8.84478 14.7201 8.8462C15.3034 8.84779 15.8758 9.00612 16.379 9.30508L29.2451 16.7817L23.5333 22.7547Z" fill="#828282"/>
<path fill-rule="evenodd" clip-rule="evenodd" d="M11.6313 35.3315L23.5374 23.782L29.2243 29.7431L16.3345 37.1889C15.9087 37.4395 15.432 37.588 14.941 37.6231C14.4499 37.6582 13.9574 37.5789 13.5011 37.3914C13.0449 37.2039 12.637 36.913 12.3085 36.5411C11.9997 36.1914 11.7689 35.7789 11.6313 35.3315Z" fill="#828282"/>
<path fill-rule="evenodd" clip-rule="evenodd" d="M11.5 12.0674C11.4988 11.7977 11.532 11.5289 11.5991 11.2679L23.045 23.2656L11.6028 35.2309C11.5353 34.9652 11.5008 34.692 11.5 34.4177V12.0674Z" fill="#828282"/>
</svg>
