<svg width="21" height="21" viewBox="0 0 21 21" fill="none" xmlns="http://www.w3.org/2000/svg">
<path fill-rule="evenodd" clip-rule="evenodd" d="M20.5 10.5C20.5 16.0228 16.0228 20.5 10.5 20.5C4.97715 20.5 0.5 16.0228 0.5 10.5C0.5 4.97715 4.97715 0.5 10.5 0.5C16.0228 0.5 20.5 4.97715 20.5 10.5ZM12.0585 6.16138C11.0866 4.86543 9.05909 5.19444 8.54682 6.73126L8.21151 7.73717C8.08053 8.13013 7.65579 8.3425 7.26283 8.21152C6.86987 8.08053 6.6575 7.65579 6.78849 7.26283L7.12379 6.25691C8.0187 3.5722 11.5606 2.99743 13.2585 5.26138C14.2532 6.58755 14.1838 8.42892 13.0922 9.67648L12.173 10.727C11.578 11.407 11.25 12.2798 11.25 13.1834V13.5C11.25 13.9142 10.9142 14.25 10.5 14.25C10.0858 14.25 9.75 13.9142 9.75 13.5V13.1834C9.75 11.9165 10.2098 10.6927 11.0441 9.73924L11.9633 8.68872C12.5882 7.97458 12.6279 6.92052 12.0585 6.16138ZM10.5 17.5C11.0523 17.5 11.5 17.0523 11.5 16.5C11.5 15.9477 11.0523 15.5 10.5 15.5C9.94771 15.5 9.5 15.9477 9.5 16.5C9.5 17.0523 9.94771 17.5 10.5 17.5Z" fill="#2D264B"/>
</svg>
