<svg width="29" height="29" viewBox="0 0 29 29" fill="none" xmlns="http://www.w3.org/2000/svg">
<path d="M12.3505 24.1666H15.5368C18.2283 24.1666 19.5741 24.1666 20.6974 23.5607C21.8208 22.9548 22.5341 21.8443 23.9606 19.6232L24.7832 18.3424L24.7832 18.3424C25.9834 16.4738 26.5834 15.5395 26.5834 14.4999C26.5834 13.4603 25.9834 12.526 24.7832 10.6575L24.7832 10.6574L23.9606 9.37659C22.5341 7.15556 21.8208 6.04504 20.6974 5.43915C19.5741 4.83325 18.2283 4.83325 15.5368 4.83325H12.3505C7.66769 4.83325 5.32628 4.83325 3.87151 6.2489C2.41675 7.66455 2.41675 9.94301 2.41675 14.4999C2.41675 19.0568 2.41675 21.3353 3.87151 22.7509C5.32628 24.1666 7.66769 24.1666 12.3505 24.1666Z" fill="#F3CC50"/>
<path d="M8.45825 8.52441C8.95876 8.52441 9.3645 8.90629 9.3645 9.37736V19.6182C9.3645 20.0893 8.95876 20.4711 8.45825 20.4711C7.95774 20.4711 7.552 20.0893 7.552 19.6182V9.37736C7.552 8.90629 7.95774 8.52441 8.45825 8.52441Z" fill="#212129"/>
</svg>
