<svg width="25" height="26" viewBox="0 0 25 26" fill="none" xmlns="http://www.w3.org/2000/svg">
<g clip-path="url(#clip0_2067_444)">
<path fill-rule="evenodd" clip-rule="evenodd" d="M25.0001 13C25.0001 19.9036 19.4037 25.5 12.5001 25.5C5.59656 25.5 0.00012207 19.9036 0.00012207 13C0.00012207 6.09644 5.59656 0.5 12.5001 0.5C19.4037 0.5 25.0001 6.09644 25.0001 13ZM12.9481 9.72805C11.7323 10.2337 9.30235 11.2804 5.65834 12.868C5.06661 13.1034 4.75664 13.3336 4.72842 13.5586C4.68073 13.9391 5.15711 14.0889 5.80582 14.2928C5.89406 14.3206 5.98549 14.3493 6.07922 14.3798C6.71745 14.5873 7.57598 14.83 8.0223 14.8396C8.42715 14.8484 8.87901 14.6815 9.37787 14.3389C12.7826 12.0406 14.5401 10.879 14.6504 10.8539C14.7283 10.8363 14.8362 10.814 14.9093 10.879C14.9823 10.944 14.9752 11.067 14.9674 11.1C14.9202 11.3012 13.0502 13.0397 12.0825 13.9394C11.7809 14.2198 11.5669 14.4188 11.5231 14.4642C11.4251 14.566 11.3253 14.6623 11.2293 14.7548C10.6363 15.3264 10.1917 15.755 11.2539 16.455C11.7643 16.7914 12.1728 17.0695 12.5803 17.347C13.0253 17.6501 13.4692 17.9524 14.0435 18.3288C14.1898 18.4247 14.3295 18.5243 14.4656 18.6214C14.9835 18.9906 15.4488 19.3223 16.0236 19.2694C16.3577 19.2387 16.7027 18.9246 16.8779 17.9879C17.292 15.7741 18.106 10.9776 18.2941 9.00101C18.3106 8.82784 18.2898 8.60622 18.2732 8.50893C18.2565 8.41164 18.2218 8.27303 18.0953 8.17042C17.9455 8.04889 17.7143 8.02327 17.6109 8.02509C17.1408 8.03337 16.4194 8.28418 12.9481 9.72805Z" fill="white"/>
</g>
<defs>
<clipPath id="clip0_2067_444">
<rect width="25" height="25" fill="white" transform="translate(0.00012207 0.5)"/>
</clipPath>
</defs>
</svg>
