<svg width="25" height="26" viewBox="0 0 25 26" fill="none" xmlns="http://www.w3.org/2000/svg">
<g clip-path="url(#clip0_2067_450)">
<path d="M7.86487 23.1563C17.2965 23.1563 22.4567 15.3403 22.4567 8.56447C22.4567 8.34474 22.4518 8.12013 22.442 7.90041C23.4458 7.17447 24.3121 6.2753 25.0001 5.24513C24.0652 5.66107 23.0727 5.93272 22.0563 6.0508C23.1265 5.40931 23.9278 4.40156 24.3116 3.21437C23.3049 3.81103 22.2038 4.23192 21.0558 4.459C20.2822 3.63707 19.2595 3.09286 18.1456 2.9105C17.0318 2.72814 15.8889 2.91779 14.8936 3.45013C13.8983 3.98247 13.1062 4.82785 12.6395 5.85556C12.1729 6.88328 12.0579 8.03609 12.3121 9.13576C10.2736 9.03346 8.27922 8.50389 6.45844 7.58138C4.63765 6.65888 3.03105 5.36403 1.7428 3.78078C1.08804 4.90966 0.887681 6.24549 1.18245 7.51679C1.47721 8.78809 2.24498 9.89945 3.32971 10.625C2.51536 10.5992 1.71885 10.3799 1.00598 9.98537V10.0488C1.00525 11.2335 1.41481 12.3819 2.16503 13.2987C2.91525 14.2156 3.95983 14.8444 5.12122 15.0781C4.36685 15.2845 3.5751 15.3146 2.80725 15.166C3.13497 16.1849 3.77259 17.076 4.63113 17.715C5.48967 18.354 6.52629 18.709 7.59631 18.7305C5.77973 20.1574 3.53572 20.9314 1.22571 20.9277C0.816046 20.9271 0.406788 20.902 0.00012207 20.8526C2.34685 22.3581 5.07672 23.1577 7.86487 23.1563Z" fill="white"/>
</g>
<defs>
<clipPath id="clip0_2067_450">
<rect width="25" height="25" fill="white" transform="translate(0.00012207 0.5)"/>
</clipPath>
</defs>
</svg>
