<svg width="25" height="26" viewBox="0 0 25 26" fill="none" xmlns="http://www.w3.org/2000/svg">
<g clip-path="url(#clip0_2067_457)">
<path d="M24.7511 8C24.7511 8 24.507 6.27637 23.755 5.51953C22.8029 4.52344 21.7384 4.51855 21.2501 4.45996C17.754 4.20605 12.505 4.20605 12.505 4.20605H12.4952C12.4952 4.20605 7.24622 4.20605 3.75012 4.45996C3.26184 4.51855 2.19739 4.52344 1.24524 5.51953C0.493286 6.27637 0.254028 8 0.254028 8C0.254028 8 0.00012207 10.0264 0.00012207 12.0479V13.9424C0.00012207 15.9639 0.249145 17.9902 0.249145 17.9902C0.249145 17.9902 0.493286 19.7139 1.24036 20.4707C2.1925 21.4668 3.4425 21.4326 3.99915 21.54C6.0011 21.7305 12.5001 21.7891 12.5001 21.7891C12.5001 21.7891 17.754 21.7793 21.2501 21.5303C21.7384 21.4717 22.8029 21.4668 23.755 20.4707C24.507 19.7139 24.7511 17.9902 24.7511 17.9902C24.7511 17.9902 25.0001 15.9688 25.0001 13.9424V12.0479C25.0001 10.0264 24.7511 8 24.7511 8ZM9.91711 16.2422V9.21582L16.67 12.7412L9.91711 16.2422Z" fill="white"/>
</g>
<defs>
<clipPath id="clip0_2067_457">
<rect width="25" height="25" fill="white" transform="translate(0.00012207 0.5)"/>
</clipPath>
</defs>
</svg>
