<svg width="1260" height="581" fill="none" xmlns="http://www.w3.org/2000/svg"><path opacity=".7" d="M27.467 762.431C128.24 978.087 480.454 1027.72 812.693 873.055 1144.96 718.39 1333.25 417.078 1232.54 201.428 1132.17-13.445 782.212-63.57 451.097 88.956a1124.15 1124.15 0 00-3.811 1.764C115.047 245.39-73.259 546.73 27.467 762.432zM1228.99 203.058c100.08 214.235-87.24 513.627-417.517 667.385-330.302 153.747-680.396 104.58-780.447-109.668-55.992-119.854-22.035-266.367 76.582-399.121C15.776 489.445-14.902 629.37 38.774 744.319c98.016 209.897 440.828 258.191 764.094 107.702C1126.14 701.5 1309.41 408.292 1211.38 198.434 1157.66 83.419 1030.46 16.921 873.243 5.063c165.367 9.85 299.727 78.064 355.747 197.995zm-861.992 16.391c19.301 41.369 86.774 50.95 150.381 21.34 63.607-29.609 99.62-87.361 80.289-128.727-10.11-21.671-33.441-34.613-62.51-37.773 37.214 1.168 67.698 15.837 80.116 42.425 21.341 45.693-18.724 109.603-89.31 142.464-70.584 32.863-145.375 22.422-166.721-23.272-12.405-26.586-4.079-59.299 18.912-88.492-16.228 24.247-21.28 50.388-11.157 72.035zm11.325-18.079c16.626 35.553 74.605 43.794 129.204 18.376 54.669-25.451 85.619-75.105 69.021-110.647-8.64-18.486-28.432-29.584-53.111-32.425 32.844.836 59.792 13.648 70.703 37.03 18.628 39.905-16.346 95.716-77.99 124.413-61.682 28.715-127.01 19.611-145.632-20.308-10.936-23.413-3.404-52.323 17.146-78.014-13.749 20.737-17.99 43.06-9.341 61.575zm11.297-18.086c13.901 29.802 62.376 36.638 108.074 15.366 45.698-21.271 71.594-62.768 57.683-92.542a40.597 40.597 0 00-.674-1.373c-.081-.154-.164-.302-.245-.454-.158-.296-.315-.592-.479-.885-.102-.181-.211-.357-.317-.537a22.451 22.451 0 00-.454-.768c-.118-.191-.244-.376-.364-.566-.151-.236-.3-.474-.455-.706-.132-.194-.271-.385-.406-.578-.153-.221-.305-.444-.463-.66-.142-.197-.293-.388-.44-.582-.158-.208-.311-.418-.472-.622-.162-.204-.318-.388-.477-.583-.158-.194-.317-.394-.482-.585-.165-.191-.339-.386-.511-.58-.163-.185-.324-.373-.492-.555-.178-.196-.363-.385-.545-.577-.167-.175-.331-.353-.502-.524-.19-.193-.386-.381-.581-.572-.168-.165-.335-.332-.503-.494-.203-.193-.41-.378-.616-.565-.171-.156-.337-.313-.513-.468-.215-.19-.436-.374-.655-.56-.172-.146-.341-.294-.515-.438a28.44 28.44 0 00-.693-.553c-.173-.136-.342-.276-.518-.41-.24-.185-.486-.364-.732-.545-.171-.13-.341-.26-.517-.384-.253-.182-.513-.358-.771-.536-.172-.119-.342-.24-.516-.358-.267-.179-.54-.352-.811-.527-.172-.11-.341-.222-.513-.331a36.714 36.714 0 00-.853-.515c-.169-.1-.336-.206-.509-.306-.293-.175-.595-.339-.894-.506-.171-.095-.333-.19-.502-.282-.308-.169-.623-.331-.937-.495-.164-.085-.327-.174-.493-.258-.324-.164-.652-.322-.981-.482-.162-.078-.321-.158-.484-.235-.338-.16-.681-.316-1.025-.469-.158-.07-.314-.143-.471-.212a61.49 61.49 0 00-1.071-.454c-.152-.063-.303-.13-.458-.192a64.68 64.68 0 00-1.117-.438c-.149-.054-.294-.116-.443-.172-.385-.144-.774-.281-1.164-.423l-.425-.155a77.151 77.151 0 00-1.212-.404c-.138-.044-.272-.09-.41-.133-.416-.134-.837-.26-1.257-.389-.13-.039-.259-.079-.39-.117a62.57 62.57 0 00-1.304-.364c-.125-.033-.249-.07-.373-.103-.447-.118-.9-.231-1.354-.342l-.35-.088a72.273 72.273 0 00-1.401-.32c-.109-.023-.218-.05-.328-.073-.479-.106-.963-.2-1.448-.296l-.308-.062a74.37 74.37 0 00-1.496-.27l-.282-.05a82.328 82.328 0 00-1.542-.245l-.259-.04a82.834 82.834 0 00-1.589-.215c-.08-.01-.158-.022-.238-.031-.053-.007-.109-.012-.163-.02 28.519.485 51.981 11.464 61.413 31.674 15.926 34.074-14.005 81.763-66.724 106.329-52.7 24.511-108.533 16.75-124.428-17.331-9.423-20.172-2.829-45.092 15.023-67.166-11.085 17.116-14.409 35.457-7.278 50.702zm11.289-18.058c11.206 23.947 50.201 29.502 86.961 12.386 36.759-17.116 57.567-50.52 46.388-74.454-5.648-12.078-18.365-19.484-34.294-21.67 3.01.02 5.948.181 8.816.482l.009.003c.705.074 1.405.156 2.099.247l.046.006c2.734.353 5.446.853 8.125 1.498l.13.032c.601.146 1.196.3 1.787.46l.167.046a65.046 65.046 0 015.562 1.794l.032.011c.559.21 1.113.43 1.661.653l.268.112c.479.199.952.403 1.419.612l.297.133c.489.223.974.452 1.453.686l.171.082a52.285 52.285 0 013.171 1.706c.071.041.141.085.212.127.421.248.837.503 1.248.762l.362.233c.364.233.723.471 1.077.714l.376.258c.366.255.725.517 1.084.781.095.07.193.139.287.212a42.97 42.97 0 012.598 2.122c.103.09.198.18.298.27.306.276.607.556.904.839.127.122.252.246.379.37a43.724 43.724 0 011.163 1.188c.266.284.525.571.781.86.103.118.209.232.31.35a38.667 38.667 0 012.003 2.53c.095.132.186.268.28.401.216.305.428.613.635.924.107.162.212.327.317.492.188.295.372.593.552.891.101.17.202.338.302.51.184.32.364.643.537.968.082.151.164.301.245.454a40 40 0 01.721 1.452c13.213 28.288-11.621 67.864-55.405 88.267-43.736 20.361-90.091 13.906-103.303-14.383a35.63 35.63 0 01-.652-1.485c-.065-.161-.126-.32-.189-.479a46.571 46.571 0 01-.398-1.032c-.07-.187-.133-.372-.197-.559a44.44 44.44 0 01-.329-.994c-.058-.187-.118-.373-.172-.56a33.732 33.732 0 01-.302-1.077c-.043-.158-.087-.315-.127-.474a37.547 37.547 0 01-.655-3.158c-.025-.151-.045-.307-.069-.459a40.29 40.29 0 01-.22-1.692 40.622 40.622 0 01-.206-2.865c-.004-.138-.012-.271-.016-.407a43.066 43.066 0 01.042-3.348c.004-.119.016-.236.021-.355.025-.443.057-.886.096-1.331.013-.152.029-.303.044-.454.042-.426.089-.853.143-1.279.019-.144.036-.286.056-.43.064-.478.135-.957.215-1.437l.04-.253a50.24 50.24 0 01.73-3.519l.045-.18c.128-.517.265-1.035.408-1.554l.09-.314a56.325 56.325 0 01.529-1.76c.18-.558.365-1.116.564-1.676.004-.015.01-.03.016-.045a63.94 63.94 0 012.195-5.402c.025-.054.05-.106.073-.16.256-.552.519-1.104.793-1.657l.062-.126a76.736 76.736 0 014.069-7.172c.006-.015.018-.026.026-.04a76.88 76.88 0 011.156-1.758c.002-.007.007-.012.012-.018a91.242 91.242 0 015.29-7.046c-8.556 13.589-11.048 28.073-5.414 40.138zm11.334-18.103c8.462 18.159 37.998 22.357 65.786 9.418 27.816-12.925 43.553-38.222 35.064-56.379-4.141-8.872-13.322-14.419-24.873-16.26 19.71-.178 36.07 7.086 42.519 20.88 10.497 22.5-9.294 53.956-44.105 70.182-34.837 16.22-71.697 11.103-82.201-11.381-6.458-13.827-1.495-31.028 11.359-46.005-6.049 10.039-7.712 20.651-3.549 29.545zm11.292-18.061c5.759 12.33 25.816 15.224 44.659 6.471 18.889-8.793 29.531-25.988 23.777-38.331-2.655-5.678-8.327-9.362-15.51-10.833 15.327-.544 28.161 4.853 33.102 15.443 7.796 16.671-6.906 40.037-32.77 52.078-25.837 12.054-53.258 8.262-61.023-8.412-4.963-10.597-.844-23.9 9.439-35.276-3.505 6.452-4.334 13.165-1.674 18.86zm11.307-18.113c3.076 6.539 13.601 8.103 23.519 3.486 9.918-4.616 15.52-13.689 12.476-20.232-1.177-2.52-3.462-4.294-6.386-5.268 11.053-1.043 20.527 2.46 23.997 9.906 5.081 10.881-4.554 26.139-21.481 34.018-16.927 7.878-34.828 5.444-39.909-5.437-3.47-7.461-.069-16.957 7.839-24.736-1.135 2.865-1.236 5.752-.054 8.265l-.001-.002zm-79.119 126.594c22.036 47.182 98.955 58.087 171.506 24.29 72.511-33.756 113.61-99.594 91.572-146.776-11.661-24.953-38.685-39.766-72.292-43.185 41.772 1.393 75.967 17.906 89.925 47.77 24.074 51.521-21.071 123.566-100.626 160.602-79.528 37.047-163.844 25.257-187.915-26.278-13.941-29.876-4.624-66.659 21.173-99.51-18.994 27.914-25.004 58.119-13.342 83.089l-.001-.002zm-11.352 18.066c24.749 52.986 111.192 65.217 192.672 27.285 81.481-37.931 127.661-111.906 102.913-164.893-13.101-28.056-43.526-44.69-81.359-48.49 45.972 1.802 83.535 20.152 98.938 53.133 26.787 57.321-23.413 137.441-111.903 178.635-88.49 41.196-182.246 28.084-209.006-29.213-15.442-33.083-5.284-73.746 23.05-110.142-21.565 31.461-28.448 65.543-15.305 93.685zm-11.262 18.071c27.421 58.805 123.334 72.366 213.776 30.286 90.424-42.122 141.638-124.187 114.205-182.965-14.646-31.333-48.725-49.828-91.05-53.897 50.511 2.054 91.766 22.266 108.698 58.518 29.491 63.14-25.803 151.357-123.275 196.758-97.427 45.353-200.641 30.885-230.131-32.254-16.919-36.2-5.957-80.676 24.853-120.586-24.029 34.955-31.713 72.85-17.074 104.141l-.002-.001zm-11.31 18.114c30.179 64.564 135.55 79.482 234.911 33.207 99.385-46.272 155.704-136.467 125.557-201.031-16.136-34.55-53.806-54.89-100.564-59.254 54.893 2.36 99.699 24.41 118.124 63.871 32.204 68.929-28.15 165.319-134.511 214.836-106.389 49.505-219.106 33.719-251.317-35.195-18.467-39.562-6.489-88.142 27.166-131.722-26.847 38.638-35.531 80.641-19.364 115.288h-.002zm-11.314 18.048c32.868 70.42 147.768 86.668 256.057 36.254 108.322-50.429 169.687-148.756 136.809-219.149-17.663-37.816-58.989-60.003-110.25-64.626 2.757.12 5.49.288 8.2.501l.277.022c.784.063 1.565.13 2.346.2l.44.04c.736.067 1.47.138 2.204.213l.46.048c.75.078 1.498.159 2.244.244l.356.04c.849.098 1.697.2 2.541.309l.016.001c2.631.335 5.234.715 7.808 1.142l.311.052c.731.122 1.458.247 2.181.375l.461.082c.685.124 1.367.25 2.045.38l.481.092c.693.134 1.384.271 2.072.412l.392.08c.781.16 1.558.325 2.333.495l.089.019c2.477.544 4.922 1.132 7.335 1.764l.374.099c.657.173 1.312.35 1.964.53l.507.141c.616.172 1.229.347 1.841.525l.524.153c.621.183 1.241.369 1.858.558l.447.137c.696.215 1.387.434 2.075.656l.19.06a168.68 168.68 0 014.612 1.571l.112.04c.694.25 1.384.501 2.071.757l.449.17c.575.217 1.15.437 1.723.659l.552.217c.541.213 1.08.429 1.617.647l.566.231a239.9 239.9 0 011.625.68l.502.214c.603.258 1.2.52 1.796.785l.294.13c1.419.634 2.82 1.287 4.201 1.958.084.04.166.082.249.123a135.782 135.782 0 015.71 2.951l.593.326c.465.257.929.517 1.391.778l.54.309c.51.293 1.016.588 1.519.887.124.074.25.146.375.22a127.12 127.12 0 013.76 2.334c.117.075.232.152.348.228.486.315.971.634 1.451.955l.537.364c.417.282.831.566 1.243.85.197.14.394.277.592.415.392.277.783.555 1.171.836l.595.43a127.228 127.228 0 012.98 2.253l.421.326c1.117.882 2.215 1.781 3.293 2.7.133.116.265.232.4.344.397.34.79.683 1.182 1.028.179.157.354.317.532.474.343.307.686.617 1.028.93.189.173.377.347.562.521a93.806 93.806 0 011.534 1.453c.325.314.645.629.965.947.176.173.353.346.524.52.347.348.689.699 1.029 1.052l.422.434a109.17 109.17 0 012.808 3.055c.134.152.265.306.398.458.32.366.637.733.952 1.102.163.192.323.387.486.579.28.336.557.672.833 1.009.169.209.338.417.504.627a93.493 93.493 0 012.067 2.669c.154.207.31.413.462.621.278.378.552.759.824 1.14.127.177.256.353.38.53a99.38 99.38 0 012.301 3.414c.118.183.234.37.35.554.251.395.5.791.746 1.19.137.224.272.449.408.675.221.365.439.732.656 1.1a96.27 96.27 0 011.034 1.811c.136.241.27.485.404.728.206.376.408.751.607 1.13.125.234.251.469.373.705.215.413.425.83.635 1.248.101.202.205.403.305.605.306.621.606 1.246.901 1.875 34.907 74.758-30.508 179.232-145.83 232.9-115.311 53.702-237.518 36.575-272.43-38.17-.294-.63-.58-1.262-.859-1.895-.092-.207-.178-.414-.269-.622-.185-.429-.37-.859-.547-1.292-.104-.246-.203-.492-.303-.738-.162-.396-.32-.793-.477-1.191a49.513 49.513 0 01-.299-.777c-.15-.391-.297-.783-.441-1.176l-.284-.779c-.144-.404-.285-.808-.424-1.213-.084-.248-.171-.494-.253-.743-.15-.447-.293-.895-.437-1.344-.066-.206-.133-.411-.196-.618a99.172 99.172 0 01-.594-1.973c-.004-.013-.006-.027-.011-.041a99.44 99.44 0 01-.537-1.941c-.056-.21-.109-.423-.163-.633a87.6 87.6 0 01-.345-1.363c-.061-.25-.119-.5-.18-.749-.1-.42-.197-.841-.292-1.262a102.474 102.474 0 01-.827-4.118c-.044-.245-.089-.49-.131-.735a90.559 90.559 0 01-.239-1.46c-.029-.191-.061-.382-.091-.574a104.11 104.11 0 01-.539-4.118c-.023-.2-.041-.401-.062-.602a168.9 168.9 0 01-.146-1.465 56.331 56.331 0 01-.062-.728 61.856 61.856 0 01-.106-1.356c-.019-.255-.035-.509-.052-.765a119.82 119.82 0 01-.079-1.345l-.036-.755c-.022-.467-.04-.937-.054-1.406l-.022-.691a79.263 79.263 0 01-.025-1.617c-.003-.158-.007-.316-.009-.476-.009-1.415.006-2.837.05-4.264.005-.175.013-.351.019-.527.019-.531.041-1.063.066-1.596.013-.223.026-.446.035-.671.026-.491.056-.98.088-1.47.016-.236.032-.474.05-.711a101.312 101.312 0 01.175-2.153c.046-.512.096-1.024.151-1.539.02-.2.039-.4.061-.602.066-.605.136-1.212.211-1.818.013-.108.023-.214.038-.319.183-1.462.393-2.927.629-4.394.023-.14.048-.28.069-.42.096-.581.195-1.164.298-1.745.036-.196.074-.39.107-.588.098-.531.199-1.063.302-1.596.042-.213.085-.423.125-.631.107-.53.216-1.059.329-1.589l.13-.604c.122-.564.247-1.126.377-1.689.038-.161.074-.324.11-.487.158-.684.323-1.366.495-2.049l.03-.12c.375-1.498.777-2.998 1.204-4.5.029-.097.059-.196.086-.293.182-.633.366-1.265.555-1.899l.148-.486c.175-.573.354-1.148.537-1.725.057-.178.114-.357.173-.535a131.742 131.742 0 01.73-2.216c.208-.613.419-1.225.635-1.837.044-.12.083-.238.125-.358a165.4 165.4 0 012.567-6.756c.02-.056.046-.112.069-.169.277-.676.556-1.353.841-2.03.053-.129.109-.258.164-.386a181.215 181.215 0 01.984-2.277 133.485 133.485 0 01.998-2.22 172.949 172.949 0 011.021-2.197 186.458 186.458 0 013.386-6.789c.009-.025.024-.045.036-.068a197.631 197.631 0 012.345-4.337c.067-.12.135-.24.201-.361.354-.634.713-1.267 1.075-1.899l.183-.314c.396-.685.796-1.372 1.202-2.056.024-.042.048-.085.073-.126 1.338-2.259 2.73-4.51 4.176-6.754l.003-.006c.464-.722.934-1.44 1.409-2.159l.164-.247c.429-.647.862-1.294 1.301-1.94l.208-.308c.437-.642.878-1.282 1.323-1.922l.182-.262c.487-.697.978-1.393 1.473-2.088l.044-.062a239.55 239.55 0 014.928-6.645c-29.442 42.198-39.008 88.096-21.331 125.919zm-11.299 18.086c35.589 76.196 159.919 93.793 277.188 39.177 117.291-54.582 183.706-160.979 148.12-237.186-19.124-40.949-63.888-64.975-119.409-69.966 63.688 2.984 115.618 28.728 137.05 74.612 37.622 80.549-32.882 193.109-157.155 250.961-124.273 57.853-255.957 39.424-293.58-41.125-21.462-45.951-7.766-102.31 31.011-152.993-31.977 45.733-42.381 95.506-23.224 136.519l-.001.001zm-11.309 18.115c38.282 81.961 172.136 100.909 298.367 42.141 126.197-58.748 197.697-173.297 159.412-255.26-20.643-44.197-69.013-70.072-128.983-75.353 68.126 3.273 123.654 30.862 146.58 79.956 40.332 86.351-35.214 207.032-168.458 269.06-133.197 61.989-274.378 42.215-314.683-44.125-22.917-49.067-8.441-109.203 32.75-163.365-34.417 49.22-45.61 102.789-24.985 146.946zm-11.324 18.076c41.017 87.774 184.356 108.002 319.488 45.088 135.159-62.899 211.771-185.512 170.735-273.32-22.154-47.459-74.184-75.18-138.663-80.718 72.641 3.526 131.848 32.966 156.312 85.34 43.045 92.137-37.617 220.985-179.751 287.132-142.182 66.192-292.845 45.048-335.873-47.067-24.436-52.318-9.036-116.452 34.842-174.231-37.099 52.822-49.233 110.368-27.088 157.776h-.002zm-11.291 18.058c43.71 93.63 196.545 115.199 340.639 48.139 144.113-67.114 225.765-197.845 182.048-291.45-23.636-50.613-79.137-80.175-147.899-86.067 76.909 3.885 139.548 35.15 165.469 90.648 45.78 97.962-39.933 234.866-191.021 305.228-151.118 70.351-311.277 47.866-357.038-50.062-25.951-55.587-9.596-123.704 37.006-185.091-39.803 56.438-52.87 117.98-29.203 168.655h-.001zm-11.315 18.052c46.438 99.468 208.734 122.37 361.778 51.122 153.043-71.25 239.793-210.091 193.35-309.55-25.171-53.883-84.403-85.292-157.748-91.41 81.512 4.098 147.902 37.218 175.376 96.009 48.452 103.787-42.287 248.845-202.372 323.374-160.052 74.511-329.707 50.684-378.186-53.109-27.421-58.709-10.236-130.663 38.865-195.572-42.31 59.957-56.202 125.335-31.061 179.136h-.002zm-11.325 18.075c49.174 105.283 220.94 129.516 382.955 54.09 161.968-75.38 253.797-222.361 204.651-327.634-26.59-56.914-89.087-90.135-166.507-96.702 85.579 4.575 155.227 39.529 184.108 101.365 51.178 109.547-44.675 262.685-213.673 341.38-169.014 78.663-348.118 53.54-399.291-56.021-28.904-61.857-10.914-137.635 40.655-206.059-44.775 63.454-59.484 132.635-32.897 189.581h-.001zm-11.293 18.149c51.863 110.983 233.102 136.614 404.064 57.003 170.951-79.585 267.816-234.673 215.965-345.683-28.109-60.21-94.277-95.295-176.22-102.115 90.092 4.819 163.417 41.616 193.84 106.724 53.876 115.377-47.049 276.639-224.982 359.497-177.962 82.848-366.576 56.348-420.45-59.043-30.443-65.153-11.485-144.968 42.852-217.024-47.549 67.113-63.22 140.366-35.067 200.641h-.002zm-11.315 18.05c54.551 116.839 245.359 143.777 425.22 60.023 179.885-83.746 281.822-246.957 227.268-363.785-29.626-63.44-99.387-100.366-185.752-107.474 94.529 5.106 171.445 43.75 203.367 112.099 56.593 121.164-49.401 290.537-236.286 377.519-186.906 87.037-384.997 59.227-441.591-61.937-31.942-68.386-12.112-152.109 44.807-227.718-50.13 70.657-66.678 147.802-37.031 211.273h-.002zm-11.306 18.112c57.288 122.653 257.526 150.851 446.35 62.947 188.848-87.898 295.878-259.197 238.591-381.847C862.534 87.099 789.245 48.332 698.522 40.896c98.894 5.436 179.343 45.924 212.75 117.43 59.292 126.994-51.766 304.464-247.625 395.622-195.835 91.17-403.401 62.056-462.722-64.948-33.448-71.588-12.706-159.259 46.863-238.459-52.783 74.259-70.24 155.367-39.08 222.074zm-11.319 18.052c59.997 128.454 269.734 157.993 467.493 65.928 197.76-92.065 309.877-271.452 249.88-399.908-32.636-69.896-109.625-110.519-204.9-118.194 103.422 5.67 187.557 48.007 222.489 122.81 62.031 132.807-54.083 318.36-258.864 413.715-204.798 95.32-421.821 64.847-483.852-67.96-34.967-74.863-13.302-166.522 48.958-249.323-55.486 77.862-73.884 162.957-41.202 232.932h-.002zm-11.277 18.031c62.705 134.255 281.907 165.216 488.604 68.994C881.42 481.437 998.59 293.904 935.878 159.661 901.737 86.568 821.215 44.111 721.582 36.12c107.819 5.984 195.515 50.169 231.941 128.161 64.747 138.612-56.505 332.28-270.21 431.77-213.714 99.514-440.245 67.729-504.985-70.882-36.436-78.034-13.936-173.538 50.822-259.859-57.969 81.368-77.183 170.286-43.038 243.391v-.003zm-11.308 18.113c65.407 140.082 294.077 172.29 509.746 71.887 215.669-100.402 337.92-295.995 272.498-436.055C921.452 86.418 837.507 42.126 733.622 33.76c112.044 6.372 203.146 52.387 241.042 133.508 67.446 144.409-58.868 346.202-281.51 449.854-222.653 103.674-458.667 70.519-526.128-73.866-37.963-81.255-14.57-180.716 52.837-270.626-60.612 84.956-80.723 177.829-45.059 254.183v-.002zm-11.299 18.086c68.127 145.861 306.298 179.469 530.886 74.872 224.628-104.553 351.919-308.27 283.791-454.131-37.18-79.612-125.01-125.787-233.64-134.312 116.803 6.51 211.798 54.4 251.289 138.934 70.139 150.19-61.212 360.077-292.862 467.92-231.587 107.834-477.11 73.362-547.24-76.84-39.483-84.533-15.153-187.98 54.949-281.497-63.313 88.57-84.363 185.433-47.173 265.054zm-11.307 18.113c70.811 151.656 318.467 186.544 552.018 77.795C937.792 532.064 1070.2 320.273 999.36 168.608 960.676 85.798 869.306 37.794 756.303 28.956c121.159 6.829 219.685 56.547 260.647 144.254 72.87 156.028-63.553 374.04-304.105 486.03-240.552 111.99-495.572 76.199-568.442-79.817-40.92-87.61-15.836-194.782 56.621-291.748-65.672 92.014-87.463 192.616-48.827 275.337l.001-.002zm-11.315 18.049c73.547 157.469 330.679 193.752 573.163 80.84C956.56 549.002 1094 329.028 1020.47 171.581 980.317 85.606 885.434 35.755 768.086 26.584c125.521 7.157 227.574 58.72 270.014 149.597 75.58 161.834-65.917 387.95-315.438 504.112-249.497 116.179-513.976 79.034-589.581-82.796-42.49-90.998-16.343-202.347 59.059-303.035-68.602 95.743-91.454 200.515-51.257 286.599v-.002zm-11.33 18.081c76.278 163.304 342.897 200.868 594.345 83.805 251.448-117.063 394.002-345.11 317.732-508.416-41.706-89.31-140.412-141.014-262.438-150.366 130.179 7.34 236.038 60.77 280.048 155.004 78.3 167.609-68.265 401.852-326.736 522.203-258.485 120.317-532.42 81.812-610.723-85.783-43.955-94.108-17.007-209.261 60.842-313.452-71.061 99.234-94.73 207.808-53.07 297.005zm-11.297 18.085c78.997 169.082 355.108 207.985 615.493 86.765 260.358-121.231 407.981-357.381 329.011-526.463-43.15-92.375-145.135-145.9-271.239-155.693C925.796 29.621 1034.93 84.86 1080.36 182.13c81 173.423-70.63 415.761-338.033 540.274-267.393 124.486-550.833 84.664-631.835-88.76-45.387-97.172-17.708-216.017 62.451-323.638-73.38 102.657-97.78 214.928-54.686 307.218l-.001.001zm-11.29 18.058c81.68 174.876 367.268 215.175 636.598 89.768 269.356-125.397 422.016-369.665 340.316-544.562-44.66-95.614-150.269-150.984-280.852-161.046 138.756 8.06 251.542 65.157 298.492 165.692 83.72 179.216-73.02 429.695-349.341 558.312-276.369 128.661-569.275 87.511-652.97-91.681C52.23 551.185 80.94 428.178 164.005 316.854c-76.28 106.368-101.712 222.782-57.039 318.429zm-11.308 18.116c84.416 180.687 379.439 222.245 657.748 92.722C1031.71 616.538 1189.47 364.18 1105.04 183.495c-46.22-98.968-155.644-156.212-290.897-166.47 143.407 8.243 259.997 67.2 308.517 171.081 86.41 185.004-75.37 443.609-360.677 576.429-285.252 132.84-587.677 90.337-674.1-94.691-48.587-104.025-18.746-231.287 67.369-346.38C75.928 433.62 49.374 554.304 95.658 653.399zm-11.297 18.086c87.097 186.479 391.656 229.426 678.887 95.706 287.232-133.72 450.042-394.258 362.952-580.739-47.7-102.11-160.58-161.187-300.103-171.801 147.688 8.6 267.723 69.387 317.723 176.412 89.13 190.83-77.74 457.534-371.984 594.515-294.215 136.991-606.145 93.17-695.266-97.687-50.035-107.122-19.408-238.151 69.133-356.724-81.751 113.63-109.092 238.086-61.342 340.318zM73.033 689.56c89.813 192.283 403.864 236.573 700.029 98.695 296.208-137.896 464.088-406.533 374.278-598.841-49.12-105.15-165.26-166.04-308.871-177.094 151.776 9.057 275.071 71.668 326.461 181.707 91.87 196.658-80.04 471.466-383.253 612.627-303.187 141.169-624.548 95.998-716.42-100.646-51.32-109.877-20.279-244.178 69.999-365.926C51.757 456.859 24 584.576 73.034 689.558v.002zm-11.297 18.086C154.248 905.759 477.801 951.363 782.914 809.3 1088.03 667.236 1261 390.496 1168.46 192.372 1117.75 83.821 997.659 21.055 849.239 9.876 1005.82 19.043 1133.07 83.53 1186.1 197.035c94.54 202.438-82.48 485.322-394.598 630.651C479.4 972.961 148.55 926.513 53.998 724.078c-52.933-113.301-20.8-251.825 72.468-377.322C39.963 467.297 11.102 599.24 61.736 707.645v.001zm-11.264 18.071c95.233 203.888 428.216 250.839 742.267 104.617 314.101-146.208 492.091-431.076 396.871-634.94C1136.75 82.219 1010.64 17.391 855.182 7.1c163.898 8.148 297.438 74.72 352.668 192.977 97.35 208.407-84.84 499.678-406.217 649.293-321.349 149.624-661.986 101.729-759.31-106.683-55.378-118.544-20.326-263.882 79.328-394.718C29.082 473.725-2.525 612.247 50.473 725.716v.001zM449.28 93.032c7.758-3.31 15.731-2.091 18.028 2.824 2.372 5.081-2.195 12.227-10.192 15.959-7.954 3.706-16.353 2.582-18.725-2.495-2.294-4.912 1.856-11.781 9.36-15.578.256-.124.509-.253.769-.373.261-.12.507-.225.76-.337z" fill="#000"/></svg>