<svg width="160" height="46" fill="none" xmlns="http://www.w3.org/2000/svg"><path d="M153.333.921c2.731 0 4.953 2.167 4.953 4.829v34.5c0 2.662-2.222 4.829-4.953 4.829H5.897c-2.73 0-4.952-2.167-4.952-4.829V5.75C.945 3.088 3.167.921 5.897.921h147.436zm0-.921H5.897C2.655 0 0 2.589 0 5.75v34.5C0 43.411 2.655 46 5.897 46h147.436c3.242 0 5.898-2.589 5.898-5.75V5.75c0-3.161-2.656-5.75-5.898-5.75z" fill="#828282"/><path d="M35.536 22.752c-.035-3.707 3.112-5.51 3.256-5.594-1.782-2.534-4.544-2.88-5.515-2.907-2.32-.238-4.57 1.353-5.753 1.353-1.205 0-3.025-1.33-4.986-1.291-2.524.038-4.886 1.463-6.18 3.675-2.674 4.512-.68 11.142 1.88 14.788 1.281 1.786 2.778 3.78 4.737 3.71 1.917-.077 2.633-1.191 4.946-1.191 2.292 0 2.964 1.191 4.962 1.146 2.057-.032 3.352-1.794 4.588-3.596 1.48-2.047 2.075-4.063 2.098-4.166-.048-.016-3.995-1.485-4.033-5.927zm-3.775-10.9c1.031-1.257 1.736-2.967 1.54-4.702-1.491.064-3.357 1.006-4.432 2.235-.95 1.083-1.8 2.859-1.58 4.529 1.676.122 3.396-.825 4.472-2.062zM63.273 36.23h-2.678l-1.467-4.496h-5.1L52.63 36.23h-2.608l5.053-15.305h3.12l5.078 15.305zm-4.588-6.382l-1.327-3.996c-.14-.408-.403-1.37-.791-2.883h-.047c-.155.65-.404 1.612-.746 2.883l-1.303 3.996h4.214zm17.583.728c0 1.877-.52 3.36-1.56 4.45-.933.969-2.09 1.453-3.47 1.453-1.492 0-2.563-.522-3.215-1.566h-.047v5.813h-2.515V28.827c0-1.18-.031-2.39-.093-3.633h2.212l.14 1.75h.047c.839-1.319 2.112-1.976 3.82-1.976 1.335 0 2.45.514 3.34 1.543.895 1.03 1.34 2.385 1.34 4.065zm-2.562.09c0-1.074-.248-1.96-.746-2.657-.543-.726-1.273-1.09-2.189-1.09-.62 0-1.184.203-1.688.602a2.78 2.78 0 00-.989 1.579 3.133 3.133 0 00-.117.747v1.84c0 .803.253 1.48.757 2.033.505.553 1.161.83 1.968.83.947 0 1.684-.357 2.211-1.068.529-.712.793-1.65.793-2.816zm15.58-.09c0 1.877-.52 3.36-1.562 4.45-.93.969-2.087 1.453-3.469 1.453-1.49 0-2.561-.522-3.212-1.566h-.048v5.813h-2.514V28.827c0-1.18-.032-2.39-.093-3.633h2.211l.14 1.75h.047c.838-1.319 2.11-1.976 3.82-1.976 1.334 0 2.448.514 3.342 1.543.89 1.03 1.338 2.385 1.338 4.065zm-2.562.09c0-1.074-.249-1.96-.746-2.657-.544-.726-1.272-1.09-2.188-1.09-.622 0-1.185.203-1.69.602a2.778 2.778 0 00-.988 1.579 3.196 3.196 0 00-.117.747v1.84c0 .803.253 1.48.755 2.033.505.552 1.16.83 1.97.83.947 0 1.684-.357 2.212-1.068.528-.712.792-1.65.792-2.816zm17.117 1.272c0 1.302-.464 2.36-1.394 3.178-1.023.894-2.447 1.34-4.276 1.34-1.689 0-3.043-.317-4.068-.953l.583-2.044a7.027 7.027 0 003.635.978c.947 0 1.684-.21 2.214-.626.527-.416.79-.975.79-1.672 0-.62-.217-1.144-.652-1.569-.433-.424-1.156-.818-2.166-1.183-2.748-1-4.12-2.463-4.12-4.388 0-1.258.48-2.29 1.444-3.093.96-.803 2.241-1.205 3.843-1.205 1.428 0 2.615.243 3.562.727l-.629 1.999c-.884-.47-1.885-.704-3.004-.704-.885 0-1.576.213-2.071.636-.419.378-.629.84-.629 1.386 0 .604.24 1.105.72 1.498.42.363 1.18.757 2.284 1.181 1.351.53 2.343 1.15 2.981 1.86.636.71.953 1.596.953 2.654zm8.314-4.904h-2.772v5.358c0 1.363.489 2.044 1.468 2.044.449 0 .822-.038 1.117-.114l.069 1.862c-.495.18-1.147.271-1.955.271-.994 0-1.77-.295-2.33-.886-.558-.59-.839-1.582-.839-2.975v-5.562h-1.651v-1.84h1.651v-2.02l2.47-.727v2.747h2.772v1.842zm12.506 3.587c0 1.696-.498 3.089-1.491 4.178-1.041 1.121-2.424 1.68-4.147 1.68-1.66 0-2.983-.537-3.969-1.61-.986-1.075-1.479-2.43-1.479-4.065 0-1.71.507-3.11 1.525-4.2 1.016-1.09 2.386-1.635 4.11-1.635 1.66 0 2.997.537 4.005 1.612.965 1.043 1.446 2.39 1.446 4.04zm-2.609.08c0-1.018-.223-1.891-.675-2.62-.527-.88-1.28-1.32-2.257-1.32-1.011 0-1.779.441-2.306 1.32-.452.73-.675 1.617-.675 2.666 0 1.017.223 1.89.675 2.617.544.88 1.303 1.32 2.284 1.32.96 0 1.713-.448 2.257-1.343.464-.742.697-1.624.697-2.64zm10.783-3.351a4.47 4.47 0 00-.793-.067c-.884 0-1.568.325-2.05.977-.418.575-.628 1.302-.628 2.18v5.79h-2.514l.024-7.56c0-1.272-.032-2.43-.094-3.475h2.19l.092 2.112h.069c.266-.726.685-1.31 1.258-1.748a3.09 3.09 0 011.817-.591c.233 0 .443.016.629.044v2.338zm11.246 2.84c0 .44-.029.81-.092 1.112h-7.544c.03 1.09.394 1.924 1.095 2.499.636.514 1.458.771 2.467.771 1.117 0 2.136-.173 3.053-.522l.394 1.702c-1.071.456-2.336.682-3.795.682-1.755 0-3.132-.503-4.135-1.51-1-1.006-1.501-2.357-1.501-4.052 0-1.664.466-3.05 1.399-4.155.976-1.18 2.296-1.77 3.957-1.77 1.631 0 2.866.59 3.705 1.77.664.937.997 2.096.997 3.473zm-2.398-.636c.017-.727-.147-1.355-.488-1.885-.435-.682-1.104-1.022-2.004-1.022-.822 0-1.491.332-2.001 1-.419.53-.668 1.165-.745 1.906h5.238zM55.707 13.16a1.77 1.77 0 01-.672 1.43c-.44.37-1.008.556-1.702.556a2.867 2.867 0 01-1.47-.38 2.697 2.697 0 01-1.012-1.06l.73-.536c.454.688 1.035 1.032 1.742 1.032.39 0 .71-.1.963-.302a.96.96 0 00.38-.788.86.86 0 00-.331-.71c-.214-.176-.529-.263-.944-.263h-.788v-.886h.759c.311 0 .554-.078.73-.233a.834.834 0 00.262-.643c0-.285-.09-.509-.272-.671-.182-.169-.438-.253-.769-.253-.603 0-1.086.289-1.45.866l-.73-.535c.461-.85 1.197-1.275 2.21-1.275.622 0 1.118.162 1.488.487.377.324.565.759.565 1.304 0 .538-.234.973-.701 1.303.675.325 1.012.844 1.012 1.558zm4.953-1.011v2.89h-.954v-.536c-.357.428-.866.643-1.528.643-.5 0-.902-.127-1.207-.38a1.24 1.24 0 01-.457-1.002c0-.415.159-.746.477-.993.318-.246.746-.37 1.284-.37h1.353v-.31c0-.332-.091-.585-.273-.76-.175-.175-.424-.263-.749-.263-.486 0-.928.237-1.323.71l-.594-.603c.467-.68 1.139-1.021 2.014-1.021.597 0 1.07.175 1.421.525.357.35.535.84.535 1.47zm-1.032 1.08v-.088h-1.226c-.565 0-.847.195-.847.584 0 .194.075.35.224.467.156.11.36.165.613.165.35 0 .642-.107.876-.32.24-.215.36-.484.36-.808zm2.463 1.81V10.26h3.367v.885h-2.335v3.893H62.09zm9.277-2.394c0 .713-.224 1.31-.672 1.79-.44.474-.999.71-1.673.71-.662 0-1.194-.23-1.596-.69v2.335h-1.022v-6.53h.954v.672c.363-.519.918-.778 1.664-.778.674 0 1.232.24 1.673.72.448.473.672 1.064.672 1.77zm-1.47 1.129c.28-.292.419-.665.419-1.12 0-.454-.14-.827-.419-1.119a1.367 1.367 0 00-1.04-.447c-.403 0-.744.136-1.023.409-.278.272-.418.655-.418 1.148 0 .5.14.885.418 1.158.28.272.62.408 1.022.408.415 0 .762-.146 1.041-.438zm5.765-3.514h1.09l-2.326 5.323c-.201.455-.441.785-.72.993-.28.214-.623.321-1.032.321-.272 0-.535-.032-.788-.097v-.866c.266.026.454.039.564.039.494 0 .84-.234 1.042-.701l.194-.448-1.907-4.563h1.1l1.372 3.474 1.41-3.474zm5.477 3.387c0 .474-.17.843-.507 1.11-.33.259-.788.389-1.372.389-.843 0-1.492-.302-1.946-.905l.623-.614c.337.41.762.614 1.275.614.285 0 .509-.059.671-.176a.582.582 0 00.243-.486.53.53 0 00-.233-.458c-.15-.11-.36-.165-.633-.165h-.554v-.817h.525c.22 0 .39-.049.506-.146a.492.492 0 00.175-.4.462.462 0 00-.194-.388c-.123-.098-.299-.146-.526-.146-.46 0-.85.178-1.167.535l-.623-.613c.434-.552 1.047-.827 1.839-.827.525 0 .934.12 1.226.36.298.233.448.564.448.992 0 .441-.172.779-.516 1.012.493.24.74.616.74 1.129zm5.025-3.493h.35v4.885h-1.03V12.07L82.7 15.146h-.36V10.26h1.032v2.987l2.792-3.094zm2.803 4.885v-3.893h-1.537v-.885h4.096v.885H89.99v3.893h-1.022zm7.756-2.054h-3.561c.065.39.237.698.516.925.285.22.632.33 1.04.33.507 0 .97-.188 1.392-.564l.487.7a2.674 2.674 0 01-1.907.77c-.727 0-1.337-.237-1.83-.71-.493-.48-.74-1.074-.74-1.781a2.349 2.349 0 01.72-1.771c.494-.5 1.078-.743 1.752-.73.63 0 1.155.21 1.577.632.421.415.632.934.632 1.557 0 .188-.026.402-.078.642zm-3.542-.798h2.599c-.007-.356-.127-.639-.36-.846a1.234 1.234 0 00-.867-.321c-.337 0-.632.107-.885.32-.246.208-.409.49-.487.847zm11.615 1.402c0 .428-.159.778-.477 1.05-.311.267-.72.4-1.226.4h-2.384V10.26h2.102c.473 0 .859.12 1.158.36.298.24.447.554.447.944 0 .382-.146.68-.437.895.544.207.817.584.817 1.129zm-3.085-2.501v1.08h1.061c.454 0 .681-.182.681-.545 0-.357-.227-.535-.681-.535h-1.061zm2.112 2.481a.528.528 0 00-.224-.448c-.143-.11-.344-.165-.603-.165h-1.285v1.265h1.285c.253 0 .454-.058.603-.175a.591.591 0 00.224-.477z" fill="#828282"/></svg>