<svg width="25" height="26" fill="none" xmlns="http://www.w3.org/2000/svg"><g clip-path="url(#clip0_2067_448)"><path d="M25 13C25 6.096 19.404.5 12.5.5 5.597.5 0 6.096 0 13c0 6.239 4.571 11.41 10.547 12.348v-8.735H7.373V13h3.174v-2.754c0-3.133 1.866-4.863 4.721-4.863 1.368 0 2.799.244 2.799.244v3.076H16.49c-1.552 0-2.037.964-2.037 1.953V13h3.467l-.554 3.613h-2.913v8.735C20.43 24.41 25 19.24 25 13z" fill="#fff"/></g><defs><clipPath id="clip0_2067_448"><path fill="#fff" transform="translate(0 .5)" d="M0 0h25v25H0z"/></clipPath></defs></svg>