<svg width="25" height="26" fill="none" xmlns="http://www.w3.org/2000/svg"><g clip-path="url(#clip0_2067_460)"><path d="M23.15.5H1.846C.826.5 0 1.306 0 2.302v21.391C0 24.69.825 25.5 1.846 25.5h21.303c1.021 0 1.851-.81 1.851-1.802V2.302C25 1.306 24.17.5 23.15.5zM7.416 21.804h-3.71V9.87h3.71v11.934zM5.562 8.244a2.15 2.15 0 110-4.297 2.148 2.148 0 010 4.297zm15.742 13.56h-3.706v-5.801c0-1.382-.025-3.164-1.929-3.164-1.929 0-2.222 1.509-2.222 3.066v5.899h-3.7V9.87H13.3v1.631h.049c.493-.938 1.704-1.929 3.506-1.929 3.754 0 4.448 2.471 4.448 5.684v6.548z" fill="#fff"/></g><defs><clipPath id="clip0_2067_460"><path fill="#fff" transform="translate(0 .5)" d="M0 0h25v25H0z"/></clipPath></defs></svg>