<svg width="268" height="53" fill="none" xmlns="http://www.w3.org/2000/svg"><path d="M11.386 10.943v31.275c0 .723-.802 1.165-1.404.763l-6.534-4.06A7.336 7.336 0 010 32.691V1.416C0 .692.802.25 1.403.652l6.535 4.1c2.165 1.287 3.448 3.659 3.448 6.191zm16.837 0v40.641c0 .724-.802 1.166-1.403.764l-6.535-4.1a7.377 7.377 0 01-3.447-6.231V1.416c0-.724.801-1.166 1.403-.764l6.534 4.1c2.165 1.287 3.448 3.659 3.448 6.191z" fill="#F3CC50"/><path d="M89.721 44.469H84.19a.977.977 0 01-.962-.965V30.24c0-1.528-.361-2.774-1.123-3.618-.761-.885-1.884-1.327-3.327-1.327-1.484 0-2.606.482-3.408 1.407-.802 1.005-1.162 2.17-1.162 3.537v13.266a.977.977 0 01-.963.965h-5.532a.977.977 0 01-.962-.965V19.827c0-.523.44-.965.962-.965h5.492c.521 0 .962.443.962.965V22.2h.04c.922-1.608 2.245-2.694 4.01-3.256 1.363-.402 2.445-.603 3.247-.603 3.047 0 5.332.965 6.895 2.934 1.564 1.97 2.325 4.382 2.325 7.276v14.954a.951.951 0 01-.962.965zm148.012 0h-5.532a.977.977 0 01-.963-.965V30.24c0-1.528-.36-2.774-1.122-3.618-.762-.885-1.884-1.327-3.327-1.327-1.484 0-2.606.482-3.408 1.407-.802 1.005-1.163 2.17-1.163 3.537v13.266a.977.977 0 01-.962.965h-5.572a.977.977 0 01-.963-.965V19.827c0-.523.441-.965.963-.965h5.492c.521 0 .962.443.962.965V22.2h.04c.922-1.608 2.245-2.694 4.009-3.256 1.363-.402 2.446-.603 3.247-.603 3.047 0 5.332.965 6.896 2.934 1.563 1.97 2.325 4.382 2.325 7.276v14.954c0 .563-.401.965-.922.965zm-128.809 0h-6.254c-.401 0-.762-.241-.882-.603l-9.581-23.677c-.24-.643.2-1.327.882-1.327h5.813c.4 0 .761.242.882.644l6.053 16.48 6.094-16.48a.953.953 0 01.882-.644h5.813c.681 0 1.163.684.882 1.327l-9.662 23.677c-.16.362-.521.603-.922.603zm50.153.563c-2.887 0-5.212-.643-6.976-1.97-.842-.603-1.523-1.246-2.045-1.97-.761-.884-1.363-2.412-1.643-3.578-.161-.603.32-1.206.922-1.206h4.931c.361 0 .721.202.882.563.16.402.481.885.962 1.287.762.723 1.724 1.085 2.886 1.085.923 0 1.644-.241 2.165-.683.522-.443.802-.965.802-1.528 0-1.085-.842-1.849-2.485-2.21l-3.248-.724c-4.891-1.086-7.336-3.578-7.336-7.477 0-2.332.922-4.302 2.766-5.91 1.884-1.648 4.209-2.492 6.976-2.492 3.728 0 6.534 1.166 8.419 3.497.801.925 1.363 2.09 1.683 3.337.161.603-.32 1.206-.922 1.206h-4.891a.935.935 0 01-.842-.523c-.16-.321-.441-.643-.882-1.005-.641-.522-1.483-.804-2.485-.804-.842 0-1.483.201-2.045.603-.521.402-.802.925-.802 1.528 0 .965.682 1.568 2.005 1.849l3.528.764c2.485.482 4.41 1.407 5.773 2.774 1.323 1.366 2.004 3.055 2.004 4.984 0 2.251-.842 4.18-2.485 5.829-1.804 1.89-4.37 2.774-7.617 2.774zm45.101-29.265l3.648 2.412c1.483 1.005 2.405 2.653 2.405 4.462v20.863a.977.977 0 01-.962.965h-5.612a.977.977 0 01-.963-.965V16.531a.967.967 0 011.484-.764zm-24.575 9.608h5.372a.977.977 0 00.962-.965v-4.583a.977.977 0 00-.962-.965h-5.372V16.29a5.717 5.717 0 00-2.326-4.623l-2.886-2.171a1.298 1.298 0 00-2.085 1.045l-.12 22.592c0 6.27 5.051 11.336 11.305 11.336h1.484a.977.977 0 00.962-.965v-4.582a.977.977 0 00-.962-.965c-2.967 0-5.372-2.412-5.372-5.387v-7.195zm-37.204-3.578c-2.365-2.372-5.412-3.538-9.18-3.538-2.486 0-4.691.603-6.736 1.769-2.124 1.246-3.768 2.854-4.971 4.904-1.242 2.05-1.844 4.302-1.844 6.754 0 2.492.642 4.824 1.884 6.954a12.832 12.832 0 005.092 4.743c2.165 1.126 4.49 1.689 7.056 1.689 2.565 0 4.931-.684 7.055-2.01 1.524-.965 2.286-1.769 2.767-2.492.28-.483.16-1.086-.321-1.367l-4.089-2.412a.908.908 0 00-1.163.16c-.321.322-.681.644-1.162.885-1.083.643-2.165.965-3.248.965-1.603 0-3.006-.483-4.169-1.407-1.203-.965-1.884-2.17-2.125-3.658h17.078c.842 0 1.564-.684 1.604-1.528v-1.125c0-3.82-1.163-6.914-3.528-9.286zm-14.953 6.954c.12-1.005.721-2.01 1.764-2.975 1.002-.964 2.245-1.447 3.808-1.447 1.804 0 3.167.523 4.129 1.528.802.884 1.243 1.849 1.323 2.894h-11.024zm-71.2-24.843l2.846 1.97a6.835 6.835 0 012.927 5.628v31.998a.977.977 0 01-.962.965h-5.573a.977.977 0 01-.962-.965V4.833c-.04-.884 1.002-1.407 1.724-.925zm135.704.764l2.847 1.97a6.834 6.834 0 012.926 5.628v31.234a.977.977 0 01-.962.965h-5.572a.977.977 0 01-.963-.965V5.597c0-.925 1.003-1.447 1.724-.925zm52.999 0l2.847 1.97a6.834 6.834 0 012.926 5.628v31.234a.977.977 0 01-.962.965h-5.613a.977.977 0 01-.962-.965V5.597a1.115 1.115 0 011.764-.925zm15.595 25.406l7.256-9.407c.481-.643.04-1.568-.761-1.568h-6.134a.987.987 0 00-.762.362l-6.414 8.321a6.53 6.53 0 000 7.96l6.414 8.32a.987.987 0 00.762.363h6.134c.801 0 1.242-.925.761-1.568l-7.256-9.366c-.762-.965-.762-2.412 0-3.417zm-52.277-24.2h-3.568a1.97 1.97 0 00-1.965 1.97v3.577a1.97 1.97 0 001.965 1.97h3.568a1.97 1.97 0 001.964-1.97V7.848a1.97 1.97 0 00-1.964-1.97z" fill="#212129"/></svg>