<svg width="160" height="46" fill="none" xmlns="http://www.w3.org/2000/svg"><path d="M153.123.921c2.726 0 4.945 2.167 4.945 4.829v34.5c0 2.662-2.219 4.829-4.945 4.829H5.889c-2.726 0-4.945-2.167-4.945-4.829V5.75C.944 3.088 3.163.921 5.889.921h147.234zm0-.921H5.889C2.652 0 0 2.589 0 5.75v34.5C0 43.411 2.652 46 5.89 46h147.233c3.237 0 5.889-2.589 5.889-5.75V5.75c0-3.161-2.652-5.75-5.889-5.75z" fill="#828282"/><path d="M53.938 13.16a1.77 1.77 0 01-.672 1.43c-.44.37-1.008.556-1.703.556a2.867 2.867 0 01-1.469-.38 2.698 2.698 0 01-1.012-1.06l.73-.536c.454.688 1.035 1.032 1.742 1.032.389 0 .71-.1.963-.302a.96.96 0 00.38-.788.86.86 0 00-.331-.71c-.214-.176-.53-.263-.944-.263h-.788v-.886h.759c.311 0 .554-.078.73-.233a.834.834 0 00.262-.643c0-.285-.09-.509-.272-.671-.182-.169-.438-.253-.77-.253-.602 0-1.086.289-1.449.866l-.73-.535c.46-.85 1.197-1.275 2.21-1.275.622 0 1.118.162 1.488.487.376.324.564.759.564 1.304 0 .538-.233.973-.7 1.303.674.325 1.012.844 1.012 1.558zm4.952-1.011v2.89h-.954v-.536c-.356.428-.866.643-1.527.643-.5 0-.902-.127-1.207-.38-.305-.253-.457-.587-.457-1.002 0-.415.159-.746.477-.993.317-.246.746-.37 1.284-.37h1.353v-.31c0-.332-.091-.585-.273-.76-.175-.175-.425-.263-.75-.263-.486 0-.927.237-1.322.71l-.594-.603c.467-.68 1.138-1.021 2.014-1.021.597 0 1.07.175 1.42.525.358.35.536.84.536 1.47zm-1.031 1.08v-.088h-1.227c-.564 0-.846.195-.846.584 0 .194.075.35.224.467.155.11.36.165.613.165.35 0 .642-.107.876-.32.24-.215.36-.484.36-.808zm2.463 1.81V10.26h3.367v.885h-2.336v3.893h-1.031zm9.276-2.394c0 .713-.223 1.31-.671 1.79-.441.474-.999.71-1.674.71-.661 0-1.193-.23-1.596-.69v2.335h-1.021v-6.53h.953v.672c.364-.519.918-.778 1.664-.778.675 0 1.233.24 1.674.72.448.473.671 1.064.671 1.77zm-1.469 1.129c.279-.292.418-.665.418-1.12 0-.454-.139-.827-.418-1.119a1.367 1.367 0 00-1.041-.447c-.402 0-.743.136-1.022.409-.279.272-.418.655-.418 1.148 0 .5.14.885.418 1.158.28.272.62.408 1.022.408.415 0 .762-.146 1.041-.438zm5.764-3.514h1.09l-2.325 5.323c-.201.455-.442.785-.72.993-.28.214-.623.321-1.032.321-.272 0-.535-.032-.788-.097v-.866c.266.026.454.039.564.039.493 0 .84-.234 1.041-.701l.195-.448-1.907-4.563h1.1l1.371 3.474 1.411-3.474zm5.477 3.387c0 .474-.169.843-.506 1.11-.33.259-.788.389-1.372.389-.843 0-1.492-.302-1.946-.905l.623-.614c.337.41.762.614 1.274.614.286 0 .51-.059.672-.176a.582.582 0 00.243-.486.53.53 0 00-.233-.458c-.15-.11-.36-.165-.633-.165h-.555v-.817h.526c.22 0 .39-.049.506-.146a.492.492 0 00.175-.4.462.462 0 00-.195-.388c-.123-.098-.298-.146-.525-.146-.46 0-.85.178-1.168.535l-.623-.613c.435-.552 1.048-.827 1.84-.827.525 0 .934.12 1.226.36.298.233.447.564.447.992 0 .441-.172.779-.515 1.012.493.24.74.616.74 1.129zm5.026-3.493h.35v4.885h-1.03V12.07l-2.784 3.075h-.36V10.26h1.031v2.987l2.793-3.094zm2.803 4.885v-3.893H85.66v-.885h4.097v.885H88.22v3.893h-1.022zm7.756-2.054h-3.561c.065.39.236.698.515.925.286.22.633.33 1.042.33.506 0 .97-.188 1.391-.564l.487.7a2.675 2.675 0 01-1.908.77c-.726 0-1.336-.237-1.829-.71-.493-.48-.74-1.074-.74-1.781a2.35 2.35 0 01.72-1.771c.494-.5 1.077-.743 1.752-.73.63 0 1.155.21 1.576.632.422.415.633.934.633 1.557 0 .188-.026.402-.078.642zm-3.542-.798h2.598c-.006-.356-.126-.639-.36-.846a1.234 1.234 0 00-.866-.321c-.337 0-.632.107-.885.32-.247.208-.409.49-.487.847zm11.615 1.402c0 .428-.159.778-.477 1.05-.312.267-.72.4-1.226.4h-2.384V10.26h2.102c.473 0 .859.12 1.158.36.298.24.447.554.447.944 0 .382-.146.68-.438.895.545.207.818.584.818 1.129zm-3.085-2.501v1.08h1.061c.454 0 .681-.182.681-.545 0-.357-.227-.535-.681-.535h-1.061zm2.112 2.481a.528.528 0 00-.224-.448c-.143-.11-.344-.165-.604-.165h-1.284v1.265h1.284c.253 0 .455-.058.604-.175a.591.591 0 00.224-.477zm44.157 11.794l-2.452 6.476h-.073l-2.559-6.476h-2.313l3.834 9.053-2.191 5.036h2.248l5.909-14.09h-2.403zm-17.327-5.375h-2.142v14.937h2.142V19.988zm-8.059 0h-5.15v14.937h2.158V29.27h3a4.42 4.42 0 001.773-.305 4.555 4.555 0 001.524-.99 4.749 4.749 0 001.037-1.523 4.894 4.894 0 00.39-1.82 4.912 4.912 0 00-.391-1.823 4.748 4.748 0 00-1.039-1.525 4.552 4.552 0 00-1.526-.992 4.428 4.428 0 00-1.776-.305zm.057 7.197h-3.049V22.1h3.057c.65 0 1.274.268 1.734.745.46.477.718 1.124.718 1.798a2.59 2.59 0 01-.718 1.798 2.41 2.41 0 01-1.734.745h-.008zm13.282-2.144a3.921 3.921 0 00-2.246.551 4.128 4.128 0 00-1.588 1.737l1.913.848c.189-.36.476-.654.824-.846a1.969 1.969 0 011.138-.24 2.029 2.029 0 011.513.476 2.152 2.152 0 01.742 1.449v.153a4.55 4.55 0 00-2.231-.585c-2.052 0-4.144 1.17-4.144 3.39 0 2.001 1.676 3.29 3.572 3.29a2.903 2.903 0 001.559-.338 3.038 3.038 0 001.171-1.12h.082v1.153h2.092V29.21c0-2.653-1.913-4.128-4.381-4.128l-.016-.042zm-.254 8.188c-.703 0-1.683-.373-1.683-1.271 0-1.153 1.217-1.594 2.28-1.594a3.711 3.711 0 011.962.5 2.74 2.74 0 01-.852 1.68 2.558 2.558 0 01-1.707.685zm-77.5 2.018a7.59 7.59 0 01-5.44-2.295 8.165 8.165 0 01-2.317-5.597 8.165 8.165 0 012.316-5.598 7.59 7.59 0 015.44-2.294 7.053 7.053 0 012.832.541c.9.374 1.718.93 2.408 1.637l-1.48 1.518a5.223 5.223 0 00-3.76-1.577 5.435 5.435 0 00-3.912 1.68 5.849 5.849 0 00-1.621 4.059 5.85 5.85 0 001.62 4.058 5.435 5.435 0 003.913 1.68 4.946 4.946 0 002.092-.367 5.1 5.1 0 001.766-1.217 4.541 4.541 0 001.136-2.713H56.41v-2.094h7.03c.076.445.112.896.106 1.348a7.251 7.251 0 01-1.806 5.086 6.987 6.987 0 01-2.445 1.662 6.78 6.78 0 01-2.885.483zm18.006-5.086a5.206 5.206 0 01-.31 1.99 5.064 5.064 0 01-1.039 1.703c-.453.49-.997.88-1.599 1.145a4.706 4.706 0 01-3.807 0 4.856 4.856 0 01-1.6-1.145 5.065 5.065 0 01-1.037-1.704 5.204 5.204 0 01-.31-1.99 5.203 5.203 0 01.31-1.989 5.064 5.064 0 011.038-1.704c.453-.49.997-.879 1.599-1.145a4.706 4.706 0 013.807 0 4.855 4.855 0 011.6 1.145 5.08 5.08 0 011.037 1.704 5.2 5.2 0 01.31 1.99zm-2.126 0a2.94 2.94 0 00-.128-1.167 2.865 2.865 0 00-.572-1.013 2.744 2.744 0 00-.918-.686 2.654 2.654 0 00-2.215 0c-.349.16-.661.394-.918.686a2.865 2.865 0 00-.572 1.013c-.12.376-.164.773-.128 1.167-.036.393.007.79.128 1.166.12.375.315.72.572 1.013.257.292.57.526.918.686a2.654 2.654 0 002.215 0c.349-.16.662-.394.918-.686.257-.293.452-.638.572-1.013a2.94 2.94 0 00.129-1.166zm12.996 0c0 1.333-.51 2.611-1.42 3.554a4.76 4.76 0 01-3.427 1.472 4.76 4.76 0 01-3.427-1.472 5.123 5.123 0 01-1.42-3.554c0-1.334.511-2.612 1.42-3.555a4.76 4.76 0 013.427-1.472 4.76 4.76 0 013.428 1.472 5.123 5.123 0 011.42 3.555zm-2.117 0a2.94 2.94 0 00-.128-1.167 2.865 2.865 0 00-.572-1.013 2.744 2.744 0 00-.918-.686 2.654 2.654 0 00-2.215 0c-.349.16-.661.394-.918.686a2.865 2.865 0 00-.572 1.013c-.12.376-.164.773-.128 1.167-.036.393.007.79.128 1.166.12.375.315.72.572 1.013.257.292.57.526.918.686a2.654 2.654 0 002.215 0c.349-.16.661-.394.918-.686.257-.293.452-.638.572-1.013a2.94 2.94 0 00.128-1.166zm12.727-4.773v9.13c0 3.747-2.15 5.29-4.684 5.29a4.58 4.58 0 01-2.616-.798 4.836 4.836 0 01-1.749-2.17l1.856-.847c.192.517.528.965.964 1.286.436.32.953.502 1.488.52 1.634 0 2.632-1.043 2.632-2.984v-.73h-.082c-.32.371-.714.667-1.154.867-.44.2-.916.301-1.396.295-1.3 0-2.548-.536-3.468-1.49a5.184 5.184 0 01-1.436-3.596c0-1.35.516-2.643 1.436-3.597a4.817 4.817 0 013.468-1.49c.483-.01.964.085 1.409.28.445.197.845.488 1.174.856h.081v-.847h2.077v.025zm-1.905 4.798c.03-.384-.014-.77-.131-1.135a2.9 2.9 0 00-.548-.992 2.782 2.782 0 00-.877-.693 2.691 2.691 0 00-1.068-.282c-.377.012-.75.104-1.093.267a2.852 2.852 0 00-.908.686 2.97 2.97 0 00-.581.997 3.05 3.05 0 00-.164 1.152 3.014 3.014 0 00.753 2.129c.255.285.564.514.906.674.342.16.712.248 1.087.257a2.66 2.66 0 001.064-.27c.333-.163.632-.395.876-.68.245-.286.432-.62.55-.983.117-.362.163-.746.134-1.127zm5.689-10.18v14.927h-2.158V20.005h2.158zm8.5 11.833l1.684 1.153a4.977 4.977 0 01-1.771 1.659 4.764 4.764 0 01-2.316.596 4.6 4.6 0 01-1.874-.37 4.745 4.745 0 01-1.583-1.105 4.943 4.943 0 01-1.035-1.661 5.078 5.078 0 01-.322-1.95 4.801 4.801 0 01.882-3.207 4.494 4.494 0 012.716-1.783 4.374 4.374 0 013.172.545 4.645 4.645 0 012.016 2.597l.221.585-6.539 2.805c.204.475.54.876.966 1.151.425.275.92.412 1.421.392a2.736 2.736 0 001.356-.387 2.85 2.85 0 001.006-1.02zm-5.157-1.83l4.397-1.883a1.95 1.95 0 00-.76-.823 1.856 1.856 0 00-1.071-.253 2.609 2.609 0 00-1.03.264 2.699 2.699 0 00-.851.657 2.82 2.82 0 00-.541.947c-.117.35-.166.72-.144 1.09z" fill="#828282"/><path fill-rule="evenodd" clip-rule="evenodd" d="M24.064 23.271l6.105 5.945 5.296-3.067a3.17 3.17 0 001.234-1.176 3.229 3.229 0 000-3.308 3.17 3.17 0 00-1.234-1.176h.018l-5.348-3.107-6.07 5.89zm-.531-.516L11.626 11.16c.2-.659.599-1.238 1.142-1.654a3.2 3.2 0 011.952-.66c.583 0 1.156.16 1.659.458l12.866 7.477-5.712 5.973zM11.631 35.331l11.906-11.549 5.687 5.961-12.89 7.446a3.196 3.196 0 01-4.025-.648 3.287 3.287 0 01-.678-1.21zM11.5 12.067c-.001-.27.032-.538.1-.8l11.445 11.999L11.603 35.23a3.343 3.343 0 01-.103-.813v-22.35z" fill="#828282"/></svg>