<svg width="21" height="21" fill="none" xmlns="http://www.w3.org/2000/svg"><path fill-rule="evenodd" clip-rule="evenodd" d="M20.5 10.5c0 5.523-4.477 10-10 10s-10-4.477-10-10 4.477-10 10-10 10 4.477 10 10zm-8.441-4.339c-.972-1.296-3-.967-3.512.57l-.335 1.006a.75.75 0 11-1.424-.474l.336-1.006c.895-2.685 4.437-3.26 6.135-.996a3.508 3.508 0 01-.167 4.415l-.919 1.051a3.73 3.73 0 00-.923 2.456v.317a.75.75 0 01-1.5 0v-.317c0-1.267.46-2.49 1.294-3.444l.92-1.05a2.008 2.008 0 00.095-2.528zM10.5 17.5a1 1 0 100-2 1 1 0 000 2z" fill="#2D264B"/></svg>