<svg width="29" height="29" fill="none" xmlns="http://www.w3.org/2000/svg"><path d="M12.35 24.167h3.187c2.691 0 4.037 0 5.16-.606 1.124-.606 1.837-1.717 3.264-3.938l.822-1.28c1.2-1.87 1.8-2.803 1.8-3.843s-.6-1.974-1.8-3.842l-.822-1.281c-1.427-2.221-2.14-3.332-3.264-3.938-1.123-.606-2.469-.606-5.16-.606H12.35c-4.682 0-7.024 0-8.478 1.416-1.455 1.416-1.455 3.694-1.455 8.25 0 4.558 0 6.836 1.455 8.252 1.454 1.416 3.796 1.416 8.479 1.416z" fill="#F3CC50"/><path d="M8.458 8.524c.5 0 .906.382.906.853v10.241c0 .471-.405.853-.906.853-.5 0-.906-.382-.906-.853V9.378c0-.472.406-.854.906-.854z" fill="#212129"/></svg>