<svg width="25" height="26" fill="none" xmlns="http://www.w3.org/2000/svg"><g clip-path="url(#clip0_2067_444)"><path fill-rule="evenodd" clip-rule="evenodd" d="M25 13c0 6.904-5.596 12.5-12.5 12.5C5.597 25.5 0 19.904 0 13S5.597.5 12.5.5C19.404.5 25 6.096 25 13zM12.948 9.728c-1.216.506-3.646 1.552-7.29 3.14-.591.235-.901.466-.93.69-.047.381.43.53 1.078.735.088.028.18.056.273.087.638.207 1.497.45 1.943.46.405.008.857-.159 1.356-.501 3.405-2.298 5.162-3.46 5.272-3.485.078-.018.186-.04.26.025.072.065.065.188.057.221-.047.201-1.917 1.94-2.885 2.84-.301.28-.515.479-.559.524a9.946 9.946 0 01-.294.29c-.593.572-1.037 1.001.025 1.701.51.336.919.615 1.326.892.445.303.89.605 1.463.982.147.096.287.195.423.292.518.37.983.701 1.558.648.334-.03.679-.344.854-1.281.414-2.214 1.228-7.01 1.416-8.987a2.207 2.207 0 00-.02-.492.527.527 0 00-.179-.339c-.15-.121-.38-.147-.484-.145-.47.008-1.192.26-4.663 1.703z" fill="#fff"/></g><defs><clipPath id="clip0_2067_444"><path fill="#fff" transform="translate(0 .5)" d="M0 0h25v25H0z"/></clipPath></defs></svg>