<svg width="25" height="26" fill="none" xmlns="http://www.w3.org/2000/svg"><g clip-path="url(#clip0_2067_450)"><path d="M7.865 23.156c9.432 0 14.592-7.816 14.592-14.592 0-.22-.005-.444-.015-.664A10.416 10.416 0 0025 5.245c-.935.416-1.927.688-2.944.806a5.156 5.156 0 002.256-2.837 10.31 10.31 0 01-3.256 1.245 5.136 5.136 0 00-8.744 4.677A14.567 14.567 0 011.742 3.78a5.135 5.135 0 001.588 6.844 5.135 5.135 0 01-2.324-.64v.064a5.127 5.127 0 004.115 5.03 5.098 5.098 0 01-2.314.087 5.139 5.139 0 004.79 3.564A10.287 10.287 0 010 20.854a14.552 14.552 0 007.865 2.303z" fill="#fff"/></g><defs><clipPath id="clip0_2067_450"><path fill="#fff" transform="translate(0 .5)" d="M0 0h25v25H0z"/></clipPath></defs></svg>