<svg width="25" height="26" fill="none" xmlns="http://www.w3.org/2000/svg"><g clip-path="url(#clip0_2067_457)"><path d="M24.751 8s-.244-1.724-.996-2.48c-.952-.997-2.017-1.001-2.505-1.06-3.496-.254-8.745-.254-8.745-.254h-.01s-5.249 0-8.745.254c-.488.059-1.553.063-2.505 1.06C.493 6.276.254 8 .254 8S0 10.026 0 12.048v1.894c0 2.022.25 4.048.25 4.048s.243 1.724.99 2.48c.952.997 2.202.963 2.76 1.07 2.001.19 8.5.25 8.5.25s5.254-.01 8.75-.26c.488-.058 1.553-.063 2.505-1.06.752-.756.996-2.48.996-2.48s.25-2.021.25-4.048v-1.894C25 10.026 24.75 8 24.75 8zM9.917 16.242V9.216l6.753 3.525-6.753 3.501z" fill="#fff"/></g><defs><clipPath id="clip0_2067_457"><path fill="#fff" transform="translate(0 .5)" d="M0 0h25v25H0z"/></clipPath></defs></svg>