<svg width="92" height="65" fill="none" xmlns="http://www.w3.org/2000/svg"><path d="M90.076 10.12a11.563 11.563 0 00-8.133-8.186C74.75 0 46 0 46 0S17.25 0 10.057 1.934a11.563 11.563 0 00-8.133 8.186C0 17.344 0 32.41 0 32.41s0 15.064 1.924 22.288a11.563 11.563 0 008.133 8.186C17.25 64.818 46 64.818 46 64.818s28.75 0 35.943-1.934a11.563 11.563 0 008.133-8.186C92 47.474 92 32.41 92 32.41s0-15.065-1.924-22.289z" fill="#FF0302"/><path d="M34.5 46.526v-27.36l24.045 13.68L34.5 46.526z" fill="#FEFEFE"/></svg>